<?xml version="1.0" encoding="UTF-8" standalone="no"?>
<svg
   xmlns:dc="http://purl.org/dc/elements/1.1/"
   xmlns:cc="http://creativecommons.org/ns#"
   xmlns:rdf="http://www.w3.org/1999/02/22-rdf-syntax-ns#"
   xmlns:svg="http://www.w3.org/2000/svg"
   xmlns="http://www.w3.org/2000/svg"
   xmlns:sodipodi="http://sodipodi.sourceforge.net/DTD/sodipodi-0.dtd"
   xmlns:inkscape="http://www.inkscape.org/namespaces/inkscape"
   width="205.92679mm"
   height="62.44894mm"
   viewBox="0 0 205.92679 62.44894"
   version="1.1"
   id="svg4402"
   inkscape:version="1.0.2 (e86c870879, 2021-01-15)"
   sodipodi:docname="intro-bg-graphic.svg">
  <defs
     id="defs4396" />
  <sodipodi:namedview
     id="base"
     pagecolor="#ffffff"
     bordercolor="#666666"
     borderopacity="1.0"
     inkscape:pageopacity="0.0"
     inkscape:pageshadow="2"
     inkscape:zoom="0.35"
     inkscape:cx="263.43871"
     inkscape:cy="6.5851862"
     inkscape:document-units="mm"
     inkscape:current-layer="layer1"
     inkscape:document-rotation="0"
     showgrid="false"
     fit-margin-top="0"
     fit-margin-left="0"
     fit-margin-right="0"
     fit-margin-bottom="0"
     inkscape:window-width="1098"
     inkscape:window-height="662"
     inkscape:window-x="255"
     inkscape:window-y="104"
     inkscape:window-maximized="0" />
  <metadata
     id="metadata4399">
    <rdf:RDF>
      <cc:Work
         rdf:about="">
        <dc:format>image/svg+xml</dc:format>
        <dc:type
           rdf:resource="http://purl.org/dc/dcmitype/StillImage" />
        <dc:title></dc:title>
      </cc:Work>
    </rdf:RDF>
  </metadata>
  <g
     inkscape:label="Layer 1"
     inkscape:groupmode="layer"
     id="layer1"
     transform="translate(-36.131842,-146.42434)">
    <g
       id="Gruppe_2999"
       data-name="Gruppe 2999"
       transform="matrix(0.26458333,0,0,0.26458333,28.507344,99.359063)">
      <g
         id="Ebene_5"
         data-name="Ebene 5">
        <path
           id="Pfad_446"
           data-name="Pfad 446"
           d="m 759.06,339.218 27.146,-46.46 -2.068,-0.315 -69.259,-40.37 a 6.773,6.773 0 1 0 -12.739,-0.652 l -47.32,19.922 38.334,-60.35 a 6.758,6.758 0 1 0 -1.267,-0.8 l -39.493,62.173 -0.014,0.006 -100.837,-47.334 -134.426,53.8 49.683,-47.879 a 6.849,6.849 0 1 0 -1.037,-1.084 l -52.126,50.231 -106.5,-34.535 a 6.777,6.777 0 0 0 -6.635,-8.133 6.72,6.72 0 0 0 -3.428,0.94 l -15.8,-21.093 a 6.792,6.792 0 1 0 -1.2,0.9 l 15.795,21.092 a 6.758,6.758 0 0 0 3.019,11.5 l -10.745,82.563 -125.677,-65.2 -1.672,-66.191 a 6.762,6.762 0 1 0 -1.5,0.04 l 1.618,64.011 -24.9,-37.882 a 6.861,6.861 0 1 0 -1.266,0.806 l 25.772,39.205 -108.862,26.31 0.352,1.458 109.33,-26.427 31.746,60.079 -49.1,-2.016 -74.842,51.816 a 6.669,6.669 0 1 0 0.86,1.228 l 74.425,-51.524 49.468,2.03 28.136,53.245 66.608,-49.041 0.716,0.372 0.083,-0.636 93.889,6.355 a 6.767,6.767 0 1 0 9.926,-6.276 l 20.647,-52.263 49.176,103.489 37.9,-64.361 41.917,50.4 a 6.753,6.753 0 1 0 1.152,-0.961 l -40.375,-48.548 50.662,24.589 a 6.772,6.772 0 1 0 0.654,-1.349 l -52.086,-25.28 98.82,-30.962 51.319,64.2 1.172,-0.937 -50.955,-63.741 49.066,-15.378 0.624,0.293 0.116,-0.184 130.568,19.776 0.135,0.078 -25.931,44.38 a 6.831,6.831 0 1 0 1.226,0.875 z m -595.547,-68.844 121.325,62.941 -90.02,-3.7 z m 59.03,111.714 -26.914,-50.934 91.018,3.738 z m 77.833,-131.115 c 0.041,0 0.082,0.006 0.123,0.006 A 6.767,6.767 0 0 0 306.665,247 l 105.035,34.054 -122,51.983 z m 91.48,83.582 a 6.74,6.74 0 0 0 -8.431,5.327 l -91.441,-6.189 120.493,-51.341 z m 71.36,48.578 L 415.394,282.494 499.8,321 Z M 500.923,319.865 415.739,281 551.281,226.755 600.716,288.6 Z m 101.329,-31.749 -48.136,-60.216 96.2,45.154 z m 52.765,-15.228 47.711,-20.088 a 6.761,6.761 0 0 0 11.421,0.582 l 65.964,38.451 z"
           fill="#b2b2b2" />
      </g>
      <g
         id="Ebene_4"
         data-name="Ebene 4">
        <path
           id="Pfad_447"
           data-name="Pfad 447"
           d="m 441.607,280.958 a 27.6,27.6 0 1 1 -27.6,-27.6 27.6,27.6 0 0 1 27.6,27.6 z"
           fill="#ffffff"
           stroke="#376b01"
           stroke-width="3" />
        <path
           id="Pfad_448"
           data-name="Pfad 448"
           d="m 316.484,334.228 a 27.6,27.6 0 1 1 -27.6,-27.6 27.6,27.6 0 0 1 27.6,27.6 z"
           fill="#407701" />
        <path
           id="Pfad_449"
           data-name="Pfad 449"
           d="m 189.332,268.6 a 27.6,27.6 0 1 1 -27.6,-27.6 27.6,27.6 0 0 1 27.6,27.6 z"
           fill="#8aaf02" />
        <path
           id="Pfad_450"
           data-name="Pfad 450"
           d="M 74.651,295.167 A 22.917,22.917 0 1 1 51.735,272.251 22.916,22.916 0 0 1 74.651,295.167 Z"
           fill="#407701" />
        <path
           id="Pfad_451"
           data-name="Pfad 451"
           d="m 490.739,384.73 a 27.6,27.6 0 1 1 -27.6,-27.6 27.6,27.6 0 0 1 27.6,27.6 z"
           fill="#ffffff"
           stroke="#376b01"
           stroke-width="3" />
        <path
           id="Pfad_452"
           data-name="Pfad 452"
           d="m 676.542,353.583 a 22.917,22.917 0 1 1 -22.915,-22.916 22.916,22.916 0 0 1 22.915,22.916 z"
           fill="#407701" />
        <path
           id="Pfad_453"
           data-name="Pfad 453"
           d="m 579.124,225.855 a 27.6,27.6 0 1 1 -27.6,-27.6 27.6,27.6 0 0 1 27.6,27.6 z"
           fill="#407701" />
        <path
           id="Pfad_454"
           data-name="Pfad 454"
           d="m 523.789,320.667 a 22.917,22.917 0 1 1 -22.915,-22.916 22.916,22.916 0 0 1 22.915,22.916 z"
           fill="#8aaf02" />
        <path
           id="Pfad_455"
           data-name="Pfad 455"
           d="m 679.874,273.23 a 27.6,27.6 0 1 1 -27.6,-27.6 27.6,27.6 0 0 1 27.6,27.6 z"
           fill="#ffffff"
           stroke="#376b01"
           stroke-width="3" />
        <path
           id="Pfad_456"
           data-name="Pfad 456"
           d="m 167.123,328.292 a 22.917,22.917 0 1 1 -22.916,-22.916 22.916,22.916 0 0 1 22.916,22.916 z"
           fill="#ffffff"
           stroke="#376b01"
           stroke-width="3" />
        <path
           id="Pfad_457"
           data-name="Pfad 457"
           d="M 245.2,383.207 A 22.916,22.916 0 1 1 222.285,360.291 22.916,22.916 0 0 1 245.2,383.207 Z"
           fill="#407701" />
        <path
           id="Pfad_458"
           data-name="Pfad 458"
           d="m 807.123,293.375 a 22.916,22.916 0 1 1 -22.914,-22.916 22.916,22.916 0 0 1 22.914,22.916 z"
           fill="#8aaf02" />
      </g>
      <g
         id="Ebene_2"
         data-name="Ebene 2">
        <path
           id="Pfad_459"
           data-name="Pfad 459"
           d="m 84.929,323.59 c -0.024,-0.115 -0.059,-0.244 -0.1,-0.382 -0.014,-0.118 -0.029,-0.229 -0.046,-0.325 0.026,-0.164 1.437,-0.791 1.361,-0.975 l -0.5,-1.191 c -0.077,-0.184 -1.515,0.379 -1.649,0.283 -0.059,-0.084 -0.127,-0.174 -0.2,-0.27 -0.06,-0.105 -0.116,-0.2 -0.169,-0.287 -0.037,-0.16 1.028,-1.277 0.888,-1.417 l -0.912,-0.913 c -0.141,-0.14 -1.258,0.926 -1.419,0.889 -0.083,-0.053 -0.178,-0.11 -0.285,-0.169 -0.112,-0.089 -0.216,-0.169 -0.314,-0.235 -0.083,-0.133 0.477,-1.559 0.294,-1.633 l -1.192,-0.491 c -0.185,-0.076 -0.79,1.33 -0.943,1.366 -0.107,-0.021 -0.227,-0.038 -0.358,-0.053 -0.123,-0.035 -0.241,-0.064 -0.347,-0.086 -0.127,-0.092 -0.151,-1.623 -0.351,-1.623 H 77.4 c -0.2,0 -0.223,1.531 -0.351,1.623 -0.114,0.024 -0.242,0.057 -0.381,0.1 -0.118,0.014 -0.228,0.031 -0.327,0.049 -0.162,-0.028 -0.789,-1.44 -0.973,-1.363 l -1.19,0.5 c -0.184,0.077 0.378,1.515 0.282,1.649 -0.082,0.057 -0.173,0.126 -0.267,0.2 -0.094,0.074 -0.205,0.117 -0.289,0.172 -0.161,0.037 -1.277,-1.03 -1.419,-0.889 l -0.913,0.912 c -0.138,0.14 0.929,1.258 0.891,1.418 -0.055,0.084 -0.112,0.181 -0.17,0.287 -0.089,0.11 -0.168,0.215 -0.233,0.311 -0.134,0.084 -1.559,-0.477 -1.634,-0.293 l -0.492,1.193 c -0.076,0.183 1.331,0.788 1.367,0.942 -0.021,0.107 -0.036,0.226 -0.05,0.355 -0.038,0.125 -0.068,0.243 -0.091,0.35 -0.09,0.128 -1.622,0.152 -1.622,0.349 v 1.291 c 0,0.2 1.532,0.223 1.622,0.351 0.025,0.115 0.059,0.244 0.1,0.382 0.014,0.117 0.031,0.228 0.05,0.326 -0.028,0.162 -1.44,0.79 -1.364,0.973 l 0.5,1.19 c 0.076,0.184 1.516,-0.377 1.651,-0.28 0.057,0.082 0.125,0.172 0.2,0.266 0.058,0.106 0.115,0.2 0.169,0.288 0.037,0.16 -1.028,1.278 -0.89,1.419 l 0.913,0.912 c 0.14,0.14 1.261,-0.926 1.42,-0.889 0.083,0.054 0.18,0.11 0.284,0.168 a 3.574,3.574 0 0 0 0.314,0.234 c 0.084,0.135 -0.478,1.561 -0.295,1.637 l 1.194,0.49 c 0.183,0.074 0.789,-1.332 0.942,-1.367 0.106,0.02 0.227,0.037 0.354,0.051 0.126,0.037 0.244,0.066 0.35,0.088 0.128,0.092 0.152,1.623 0.351,1.623 h 1.291 c 0.2,0 0.224,-1.531 0.35,-1.623 0.114,-0.024 0.245,-0.057 0.381,-0.1 0.118,-0.015 0.229,-0.031 0.326,-0.049 0.164,0.027 0.79,1.438 0.973,1.362 l 1.191,-0.5 c 0.183,-0.076 -0.377,-1.515 -0.282,-1.648 0.084,-0.059 0.173,-0.126 0.268,-0.2 0.106,-0.059 0.2,-0.116 0.287,-0.171 0.161,-0.037 1.278,1.029 1.419,0.889 l 0.914,-0.912 c 0.14,-0.141 -0.928,-1.258 -0.889,-1.418 0.052,-0.083 0.109,-0.178 0.168,-0.284 0.088,-0.111 0.17,-0.218 0.236,-0.316 0.132,-0.084 1.557,0.478 1.633,0.294 l 0.489,-1.192 c 0.077,-0.184 -1.33,-0.788 -1.365,-0.94 0.021,-0.108 0.037,-0.228 0.053,-0.359 0.034,-0.125 0.064,-0.243 0.086,-0.35 0.093,-0.127 1.623,-0.15 1.623,-0.35 v -1.289 c -0.005,-0.2 -1.535,-0.222 -1.626,-0.35 z m -6.886,3.828 a 2.837,2.837 0 1 1 2.836,-2.838 2.841,2.841 0 0 1 -2.836,2.838 z M 483.975,287.49 c -0.024,-0.114 -0.059,-0.244 -0.1,-0.381 -0.014,-0.118 -0.029,-0.228 -0.046,-0.326 0.025,-0.163 1.437,-0.791 1.36,-0.972 l -0.495,-1.194 c -0.077,-0.181 -1.515,0.38 -1.649,0.284 -0.059,-0.083 -0.127,-0.172 -0.2,-0.27 -0.06,-0.1 -0.116,-0.2 -0.169,-0.285 -0.037,-0.161 1.028,-1.279 0.887,-1.418 l -0.912,-0.913 c -0.14,-0.142 -1.257,0.925 -1.418,0.889 -0.084,-0.054 -0.178,-0.111 -0.285,-0.17 -0.112,-0.088 -0.217,-0.169 -0.314,-0.235 -0.083,-0.134 0.476,-1.558 0.294,-1.634 l -1.193,-0.49 c -0.184,-0.076 -0.79,1.33 -0.942,1.366 -0.107,-0.02 -0.228,-0.038 -0.358,-0.052 -0.123,-0.035 -0.241,-0.066 -0.347,-0.087 -0.127,-0.092 -0.151,-1.623 -0.352,-1.623 h -1.289 c -0.2,0 -0.223,1.531 -0.351,1.623 -0.115,0.023 -0.242,0.057 -0.381,0.1 -0.118,0.014 -0.229,0.03 -0.327,0.047 -0.162,-0.025 -0.789,-1.437 -0.973,-1.361 l -1.19,0.5 c -0.184,0.076 0.378,1.516 0.282,1.65 -0.082,0.057 -0.173,0.125 -0.267,0.2 -0.107,0.059 -0.205,0.116 -0.289,0.171 -0.161,0.037 -1.277,-1.03 -1.419,-0.889 l -0.913,0.912 c -0.139,0.14 0.929,1.258 0.891,1.418 -0.055,0.085 -0.113,0.181 -0.17,0.287 -0.089,0.111 -0.168,0.216 -0.234,0.312 -0.133,0.084 -1.558,-0.476 -1.633,-0.293 l -0.493,1.193 c -0.075,0.182 1.332,0.788 1.368,0.942 -0.021,0.106 -0.036,0.226 -0.05,0.355 -0.038,0.126 -0.069,0.243 -0.091,0.349 -0.09,0.128 -1.622,0.152 -1.622,0.351 v 1.29 c 0,0.2 1.532,0.224 1.622,0.351 0.024,0.115 0.059,0.244 0.1,0.38 0.014,0.12 0.031,0.229 0.049,0.327 -0.027,0.163 -1.439,0.791 -1.363,0.973 l 0.5,1.191 c 0.075,0.183 1.516,-0.377 1.651,-0.282 0.057,0.082 0.125,0.173 0.2,0.268 0.057,0.1 0.115,0.2 0.169,0.287 0.037,0.16 -1.029,1.279 -0.89,1.42 l 0.913,0.911 c 0.14,0.14 1.261,-0.927 1.42,-0.889 0.083,0.054 0.18,0.111 0.283,0.169 0.111,0.089 0.216,0.168 0.315,0.235 0.084,0.133 -0.478,1.558 -0.3,1.635 l 1.194,0.49 c 0.183,0.076 0.788,-1.331 0.942,-1.366 0.106,0.019 0.227,0.036 0.354,0.051 0.126,0.035 0.244,0.066 0.35,0.088 0.128,0.091 0.152,1.623 0.351,1.623 h 1.29 c 0.2,0 0.225,-1.532 0.351,-1.623 0.114,-0.023 0.245,-0.057 0.381,-0.1 0.118,-0.014 0.229,-0.03 0.326,-0.047 0.164,0.025 0.79,1.437 0.973,1.361 l 1.191,-0.5 c 0.183,-0.076 -0.377,-1.516 -0.282,-1.65 0.084,-0.057 0.173,-0.125 0.268,-0.2 0.106,-0.058 0.2,-0.115 0.286,-0.171 0.162,-0.036 1.279,1.031 1.419,0.89 l 0.914,-0.912 c 0.141,-0.141 -0.927,-1.258 -0.888,-1.42 0.052,-0.082 0.109,-0.178 0.168,-0.281 0.088,-0.113 0.17,-0.22 0.236,-0.318 0.132,-0.083 1.557,0.478 1.633,0.294 l 0.489,-1.192 c 0.077,-0.185 -1.33,-0.788 -1.365,-0.94 0.02,-0.108 0.037,-0.228 0.053,-0.359 0.034,-0.126 0.064,-0.243 0.086,-0.348 0.092,-0.127 1.623,-0.153 1.623,-0.351 v -1.289 c 0.003,-0.199 -1.532,-0.223 -1.622,-0.352 z m -6.886,3.829 a 2.837,2.837 0 1 1 2.836,-2.837 2.84,2.84 0 0 1 -2.836,2.837 z"
           fill="#8aaf02" />
        <path
           id="Pfad_460"
           data-name="Pfad 460"
           d="m 611.843,328.031 c -1.53,-0.381 0.019,-6.1 -0.714,-6.091 -4.023,0.025 -7.239,0.216 -6.085,1.2 0.642,0.675 1.985,2.561 -0.5,3.13 -4.576,0.938 -0.78,-3.7 -1.857,-3.88 -0.384,-0.065 -6.551,-0.941 -6.543,-0.257 0.081,6.3 0.327,6.876 1.3,6.132 1.885,-1.44 4.35,-1.652 3.777,1.367 -0.549,2.886 -2.909,1.6 -4.136,1.029 -0.765,-0.354 -0.8,5.965 -0.36,6.2 0.74,0.4 6.447,-0.375 5.914,0.559 -0.478,0.836 -2.525,4.816 1.273,4.133 5.062,-0.913 0.248,-3.469 1.214,-4.262 1.255,-1.031 6.443,0.062 6.336,-0.717 -0.422,-3.047 0.363,-5.91 1.3,-4.8 0.729,0.86 3.154,2.3 3.2,-1.944 0.046,-4.244 -3.19,-1.566 -4.119,-1.799 z M 274.792,289.056 c -2.5,1.907 -5.764,2.19 -5,-1.812 0.728,-3.826 3.854,-2.119 5.481,-1.364 1.013,0.47 1.062,-7.9 0.476,-8.222 -0.979,-0.527 -8.543,0.5 -7.837,-0.74 0.633,-1.107 3.346,-6.382 -1.687,-5.476 -6.708,1.207 -0.329,4.6 -1.609,5.648 -1.664,1.367 -8.54,-0.083 -8.4,0.949 0.559,4.039 -0.481,7.834 -1.729,6.362 -0.966,-1.139 -4.178,-3.051 -4.236,2.578 -0.058,5.629 4.232,2.08 5.465,2.388 2.027,0.5 -0.027,8.078 0.945,8.073 5.331,-0.034 9.6,-0.287 8.065,-1.592 -0.851,-0.895 -2.63,-3.394 0.658,-4.149 6.065,-1.242 1.034,4.9 2.46,5.145 0.511,0.086 8.684,1.246 8.673,0.34 -0.11,-8.346 -0.435,-9.113 -1.725,-8.128 z M 524.26,190.808 c -1.23,-1.5 0.076,-7.683 -0.854,-7.555 -3.634,0.5 -7.049,-0.433 -5.724,-1.556 1.025,-0.869 2.746,-3.761 -2.32,-3.812 -5.066,-0.051 -1.871,3.808 -2.148,4.916 -0.454,1.825 -7.27,-0.023 -7.264,0.852 0.029,4.8 0.258,8.634 1.432,7.257 0.8,-0.767 3.054,-2.367 3.733,0.592 1.117,5.457 -4.412,0.93 -4.628,2.213 -0.078,0.459 -1.122,7.814 -0.306,7.8 7.508,-0.1 8.2,-0.389 7.313,-1.549 -1.717,-2.248 -1.971,-5.186 1.63,-4.5 3.442,0.655 1.907,3.467 1.228,4.931 -0.423,0.912 7.113,0.957 7.4,0.429 0.476,-0.881 -0.447,-7.687 0.666,-7.051 1,0.569 5.743,3.011 4.928,-1.519 -1.089,-6.036 -4.14,-0.295 -5.086,-1.448 z M 96.819,307.866 c -0.023,-0.114 -0.058,-0.244 -0.1,-0.382 -0.014,-0.117 -0.03,-0.228 -0.046,-0.325 0.025,-0.163 1.436,-0.791 1.36,-0.973 l -0.5,-1.193 c -0.077,-0.182 -1.516,0.38 -1.649,0.284 -0.059,-0.084 -0.127,-0.174 -0.2,-0.27 -0.06,-0.1 -0.117,-0.2 -0.169,-0.286 -0.038,-0.16 1.028,-1.278 0.887,-1.418 l -0.912,-0.912 c -0.14,-0.142 -1.258,0.924 -1.418,0.888 -0.084,-0.053 -0.178,-0.111 -0.285,-0.17 -0.112,-0.088 -0.217,-0.168 -0.314,-0.234 -0.083,-0.134 0.476,-1.559 0.293,-1.634 l -1.192,-0.491 c -0.184,-0.075 -0.79,1.33 -0.942,1.367 -0.108,-0.021 -0.228,-0.039 -0.359,-0.053 -0.123,-0.035 -0.24,-0.065 -0.346,-0.087 -0.127,-0.091 -0.152,-1.623 -0.352,-1.623 H 89.29 c -0.2,0 -0.224,1.532 -0.351,1.623 -0.115,0.024 -0.243,0.058 -0.381,0.1 -0.118,0.014 -0.229,0.03 -0.328,0.048 -0.162,-0.026 -0.789,-1.438 -0.972,-1.362 l -1.191,0.5 c -0.183,0.076 0.378,1.514 0.283,1.649 -0.082,0.057 -0.173,0.125 -0.267,0.2 -0.107,0.059 -0.205,0.117 -0.289,0.172 -0.161,0.036 -1.277,-1.031 -1.419,-0.889 l -0.913,0.912 c -0.139,0.139 0.929,1.258 0.89,1.418 -0.054,0.085 -0.112,0.18 -0.169,0.287 -0.089,0.11 -0.168,0.216 -0.234,0.311 -0.134,0.084 -1.558,-0.476 -1.634,-0.293 l -0.492,1.194 c -0.075,0.181 1.331,0.787 1.367,0.941 -0.02,0.107 -0.036,0.227 -0.049,0.356 -0.039,0.125 -0.069,0.242 -0.091,0.349 -0.09,0.127 -1.622,0.152 -1.622,0.35 v 1.291 c 0,0.2 1.532,0.222 1.622,0.349 0.024,0.116 0.058,0.245 0.1,0.382 0.014,0.118 0.031,0.229 0.049,0.326 -0.027,0.164 -1.439,0.79 -1.363,0.974 l 0.5,1.19 c 0.075,0.183 1.516,-0.377 1.65,-0.281 0.058,0.082 0.125,0.173 0.2,0.267 0.057,0.1 0.115,0.2 0.169,0.287 0.037,0.16 -1.029,1.279 -0.89,1.42 l 0.913,0.912 c 0.14,0.14 1.261,-0.927 1.42,-0.889 0.083,0.053 0.18,0.11 0.283,0.168 0.111,0.09 0.216,0.169 0.315,0.235 0.084,0.133 -0.478,1.559 -0.295,1.635 l 1.194,0.491 c 0.183,0.075 0.788,-1.331 0.941,-1.367 0.107,0.02 0.228,0.037 0.355,0.051 0.126,0.036 0.244,0.067 0.35,0.088 0.127,0.092 0.152,1.623 0.351,1.623 h 1.29 c 0.2,0 0.225,-1.531 0.351,-1.623 0.114,-0.023 0.245,-0.057 0.38,-0.1 0.119,-0.014 0.23,-0.03 0.327,-0.047 0.164,0.025 0.79,1.437 0.972,1.361 l 1.192,-0.5 c 0.182,-0.076 -0.377,-1.516 -0.282,-1.65 0.083,-0.057 0.172,-0.126 0.268,-0.2 0.106,-0.058 0.2,-0.115 0.286,-0.17 0.161,-0.037 1.279,1.03 1.419,0.889 l 0.914,-0.912 c 0.141,-0.141 -0.927,-1.258 -0.888,-1.419 0.051,-0.083 0.109,-0.178 0.167,-0.282 0.088,-0.113 0.17,-0.219 0.237,-0.317 0.132,-0.084 1.557,0.478 1.633,0.293 l 0.489,-1.191 c 0.077,-0.185 -1.33,-0.788 -1.365,-0.941 0.02,-0.108 0.037,-0.227 0.052,-0.358 0.035,-0.126 0.065,-0.244 0.086,-0.35 0.093,-0.127 1.623,-0.151 1.623,-0.349 v -1.289 c -0.003,-0.199 -1.533,-0.223 -1.624,-0.351 z m -6.885,3.834 a 2.838,2.838 0 1 1 2.836,-2.838 2.84,2.84 0 0 1 -2.836,2.838 z m 257.14,51.826 c -0.039,-0.2 -0.1,-0.418 -0.168,-0.652 -0.025,-0.2 -0.051,-0.391 -0.08,-0.557 0.045,-0.279 2.459,-1.353 2.33,-1.666 l -0.849,-2.04 c -0.131,-0.312 -2.592,0.65 -2.823,0.486 -0.1,-0.143 -0.215,-0.3 -0.345,-0.462 -0.1,-0.179 -0.2,-0.345 -0.289,-0.489 -0.065,-0.275 1.757,-2.186 1.517,-2.426 l -1.56,-1.561 c -0.239,-0.242 -2.151,1.582 -2.424,1.521 -0.145,-0.093 -0.309,-0.191 -0.489,-0.29 -0.191,-0.153 -0.371,-0.289 -0.539,-0.4 -0.14,-0.228 0.819,-2.666 0.5,-2.795 l -2.039,-0.839 c -0.316,-0.128 -1.353,2.276 -1.613,2.338 -0.184,-0.036 -0.389,-0.065 -0.611,-0.09 -0.213,-0.061 -0.414,-0.112 -0.594,-0.149 -0.221,-0.157 -0.262,-2.776 -0.6,-2.776 h -2.207 c -0.338,0 -0.381,2.619 -0.6,2.776 -0.2,0.041 -0.416,0.1 -0.653,0.166 -0.2,0.024 -0.392,0.051 -0.56,0.082 -0.278,-0.045 -1.35,-2.461 -1.662,-2.33 l -2.037,0.85 c -0.315,0.131 0.644,2.592 0.482,2.821 -0.141,0.1 -0.3,0.215 -0.457,0.345 -0.184,0.1 -0.35,0.2 -0.494,0.292 -0.276,0.063 -2.186,-1.762 -2.428,-1.521 l -1.56,1.561 c -0.239,0.24 1.585,2.152 1.521,2.426 -0.092,0.144 -0.191,0.31 -0.291,0.491 -0.15,0.188 -0.285,0.368 -0.4,0.534 -0.229,0.143 -2.668,-0.816 -2.8,-0.5 l -0.842,2.041 c -0.129,0.313 2.277,1.348 2.34,1.611 -0.035,0.182 -0.063,0.387 -0.088,0.606 -0.063,0.217 -0.115,0.418 -0.153,0.6 -0.154,0.219 -2.775,0.261 -2.775,0.6 v 2.207 c 0,0.34 2.619,0.383 2.775,0.6 0.041,0.2 0.1,0.417 0.168,0.651 0.024,0.2 0.051,0.392 0.082,0.559 -0.044,0.277 -2.462,1.351 -2.332,1.665 l 0.85,2.036 c 0.131,0.314 2.6,-0.645 2.826,-0.481 0.1,0.141 0.213,0.3 0.342,0.457 0.1,0.181 0.2,0.347 0.291,0.491 0.064,0.275 -1.76,2.188 -1.521,2.429 l 1.56,1.559 c 0.24,0.24 2.156,-1.584 2.43,-1.52 0.142,0.092 0.306,0.19 0.482,0.289 0.192,0.153 0.373,0.289 0.539,0.4 0.143,0.228 -0.816,2.668 -0.5,2.8 l 2.043,0.839 c 0.313,0.128 1.348,-2.278 1.61,-2.338 0.183,0.033 0.388,0.062 0.607,0.088 0.215,0.062 0.416,0.113 0.6,0.15 0.218,0.156 0.26,2.776 0.6,2.776 h 2.214 c 0.34,0 0.381,-2.62 0.6,-2.776 0.2,-0.041 0.418,-0.1 0.65,-0.166 0.2,-0.023 0.4,-0.053 0.559,-0.082 0.279,0.045 1.351,2.46 1.664,2.329 l 2.039,-0.849 c 0.313,-0.13 -0.646,-2.591 -0.482,-2.822 0.142,-0.1 0.3,-0.214 0.459,-0.344 0.179,-0.1 0.345,-0.2 0.488,-0.293 0.277,-0.062 2.189,1.762 2.43,1.522 l 1.56,-1.561 c 0.24,-0.24 -1.584,-2.152 -1.519,-2.427 0.089,-0.141 0.187,-0.3 0.285,-0.483 0.154,-0.191 0.293,-0.375 0.406,-0.543 0.229,-0.142 2.664,0.819 2.793,0.5 l 0.84,-2.04 c 0.131,-0.314 -2.276,-1.347 -2.338,-1.607 0.035,-0.184 0.064,-0.391 0.09,-0.614 0.06,-0.214 0.148,-0.6 0.148,-0.6 0,0 2.778,-0.26 2.778,-0.6 v -2.2 c 0,-0.35 -2.618,-0.389 -2.776,-0.61 z m -11.774,6.546 a 4.854,4.854 0 1 1 4.851,-4.854 4.861,4.861 0 0 1 -4.851,4.854 z M 744.131,236.788 c -0.024,-0.115 -0.059,-0.244 -0.1,-0.381 -0.013,-0.118 -0.029,-0.229 -0.046,-0.326 0.026,-0.163 1.437,-0.791 1.361,-0.974 l -0.495,-1.192 c -0.078,-0.183 -1.516,0.379 -1.65,0.284 -0.058,-0.084 -0.127,-0.174 -0.2,-0.27 -0.06,-0.1 -0.116,-0.2 -0.169,-0.286 -0.037,-0.161 1.028,-1.278 0.888,-1.418 l -0.912,-0.913 c -0.141,-0.141 -1.258,0.925 -1.418,0.889 -0.084,-0.053 -0.179,-0.111 -0.286,-0.169 -0.112,-0.089 -0.216,-0.169 -0.314,-0.236 -0.083,-0.133 0.477,-1.558 0.294,-1.633 l -1.192,-0.491 c -0.185,-0.075 -0.79,1.331 -0.943,1.367 -0.107,-0.021 -0.227,-0.038 -0.358,-0.053 -0.123,-0.035 -0.24,-0.065 -0.347,-0.087 -0.127,-0.091 -0.151,-1.623 -0.351,-1.623 H 736.6 c -0.2,0 -0.224,1.532 -0.352,1.623 -0.114,0.024 -0.242,0.058 -0.381,0.1 -0.118,0.014 -0.228,0.03 -0.327,0.048 -0.162,-0.026 -0.789,-1.438 -0.973,-1.362 l -1.19,0.5 c -0.184,0.076 0.378,1.515 0.282,1.649 -0.082,0.057 -0.173,0.126 -0.267,0.2 -0.107,0.059 -0.2,0.117 -0.289,0.172 -0.161,0.036 -1.277,-1.031 -1.419,-0.889 l -0.913,0.912 c -0.138,0.14 0.929,1.258 0.891,1.418 -0.055,0.084 -0.112,0.181 -0.17,0.287 -0.089,0.11 -0.168,0.215 -0.233,0.311 -0.134,0.084 -1.559,-0.476 -1.634,-0.293 l -0.492,1.193 c -0.075,0.183 1.331,0.788 1.367,0.942 -0.021,0.107 -0.036,0.226 -0.05,0.355 -0.038,0.126 -0.068,0.243 -0.091,0.35 -0.09,0.128 -1.622,0.152 -1.622,0.35 v 1.29 c 0,0.2 1.532,0.223 1.622,0.351 0.025,0.115 0.059,0.244 0.1,0.381 0.015,0.118 0.031,0.229 0.05,0.326 -0.028,0.163 -1.44,0.791 -1.364,0.974 l 0.5,1.19 c 0.075,0.184 1.515,-0.377 1.65,-0.281 0.058,0.082 0.125,0.173 0.2,0.267 0.058,0.106 0.115,0.2 0.169,0.287 0.037,0.161 -1.028,1.279 -0.89,1.42 l 0.913,0.911 c 0.14,0.141 1.261,-0.926 1.42,-0.888 0.083,0.054 0.18,0.11 0.284,0.168 0.11,0.09 0.215,0.169 0.314,0.235 0.084,0.133 -0.477,1.559 -0.295,1.635 l 1.194,0.491 c 0.183,0.075 0.789,-1.332 0.942,-1.367 0.106,0.019 0.227,0.037 0.354,0.051 0.126,0.036 0.245,0.066 0.35,0.088 0.128,0.091 0.152,1.623 0.352,1.623 h 1.29 c 0.2,0 0.224,-1.532 0.35,-1.623 0.114,-0.023 0.245,-0.057 0.381,-0.1 0.118,-0.014 0.23,-0.03 0.326,-0.047 0.164,0.025 0.79,1.437 0.973,1.361 l 1.191,-0.5 c 0.183,-0.076 -0.377,-1.516 -0.282,-1.65 0.084,-0.057 0.173,-0.125 0.269,-0.2 0.1,-0.059 0.2,-0.116 0.286,-0.171 0.161,-0.037 1.278,1.03 1.419,0.889 l 0.914,-0.912 c 0.14,-0.141 -0.928,-1.258 -0.889,-1.419 0.052,-0.083 0.109,-0.178 0.168,-0.282 0.088,-0.113 0.17,-0.22 0.236,-0.317 0.132,-0.084 1.557,0.478 1.633,0.294 l 0.489,-1.193 c 0.078,-0.184 -1.33,-0.787 -1.365,-0.94 0.021,-0.107 0.037,-0.228 0.053,-0.358 0.034,-0.126 0.064,-0.244 0.086,-0.35 0.093,-0.127 1.623,-0.151 1.623,-0.35 v -1.289 c -0.001,-0.197 -1.531,-0.22 -1.622,-0.349 z m -6.886,3.829 a 2.838,2.838 0 1 1 2.836,-2.838 2.841,2.841 0 0 1 -2.836,2.838 z"
           fill="#b3dd03" />
        <path
           id="Pfad_461"
           data-name="Pfad 461"
           d="m 772.961,244.164 c -0.039,-0.2 -0.1,-0.418 -0.168,-0.652 -0.025,-0.2 -0.051,-0.392 -0.08,-0.557 0.045,-0.28 2.459,-1.353 2.33,-1.666 l -0.85,-2.04 c -0.131,-0.313 -2.591,0.649 -2.822,0.484 q -0.15,-0.212 -0.346,-0.461 c -0.1,-0.179 -0.2,-0.344 -0.289,-0.489 -0.064,-0.275 1.758,-2.186 1.518,-2.426 l -1.561,-1.561 c -0.238,-0.242 -2.15,1.583 -2.424,1.521 -0.144,-0.092 -0.308,-0.19 -0.488,-0.29 -0.191,-0.152 -0.371,-0.289 -0.539,-0.4 -0.14,-0.229 0.818,-2.666 0.5,-2.795 l -2.039,-0.84 c -0.316,-0.128 -1.354,2.276 -1.613,2.337 -0.184,-0.034 -0.389,-0.064 -0.612,-0.089 -0.213,-0.06 -0.414,-0.111 -0.593,-0.149 -0.221,-0.157 -0.262,-2.776 -0.6,-2.776 h -2.205 c -0.338,0 -0.381,2.619 -0.6,2.776 -0.2,0.041 -0.416,0.1 -0.652,0.166 -0.2,0.024 -0.393,0.051 -0.56,0.082 -0.278,-0.045 -1.35,-2.461 -1.663,-2.329 l -2.037,0.849 c -0.314,0.13 0.645,2.592 0.483,2.821 -0.141,0.1 -0.3,0.215 -0.457,0.345 -0.184,0.1 -0.35,0.2 -0.494,0.292 -0.276,0.064 -2.186,-1.762 -2.428,-1.52 l -1.561,1.56 c -0.238,0.24 1.586,2.152 1.522,2.426 -0.092,0.145 -0.192,0.31 -0.291,0.491 -0.151,0.189 -0.285,0.369 -0.4,0.534 -0.228,0.143 -2.668,-0.816 -2.795,-0.5 l -0.841,2.041 c -0.129,0.312 2.277,1.348 2.339,1.612 -0.035,0.181 -0.062,0.386 -0.087,0.606 -0.063,0.215 -0.116,0.417 -0.153,0.6 -0.154,0.218 -2.775,0.26 -2.775,0.6 v 2.207 c 0,0.341 2.619,0.383 2.775,0.6 0.041,0.2 0.1,0.417 0.168,0.652 0.024,0.2 0.051,0.391 0.082,0.558 -0.045,0.278 -2.463,1.351 -2.332,1.665 l 0.85,2.036 c 0.131,0.314 2.595,-0.644 2.826,-0.48 0.1,0.14 0.213,0.294 0.342,0.456 0.1,0.181 0.2,0.347 0.291,0.491 0.064,0.275 -1.76,2.188 -1.522,2.43 l 1.561,1.559 c 0.24,0.239 2.156,-1.585 2.43,-1.52 0.142,0.091 0.306,0.189 0.482,0.288 0.191,0.153 0.373,0.289 0.539,0.4 0.143,0.229 -0.816,2.668 -0.5,2.8 l 2.043,0.838 c 0.313,0.13 1.348,-2.277 1.609,-2.338 0.184,0.034 0.389,0.063 0.608,0.089 0.215,0.062 0.416,0.113 0.6,0.15 0.219,0.156 0.26,2.777 0.6,2.777 h 2.207 c 0.34,0 0.381,-2.621 0.6,-2.777 0.2,-0.04 0.418,-0.1 0.65,-0.166 0.2,-0.024 0.4,-0.052 0.559,-0.081 0.279,0.044 1.351,2.459 1.664,2.328 l 2.039,-0.848 c 0.312,-0.131 -0.647,-2.593 -0.483,-2.823 0.143,-0.1 0.3,-0.214 0.459,-0.344 0.18,-0.1 0.346,-0.2 0.489,-0.292 0.277,-0.063 2.189,1.761 2.429,1.521 l 1.561,-1.56 c 0.24,-0.241 -1.584,-2.152 -1.52,-2.428 0.09,-0.141 0.188,-0.3 0.285,-0.483 0.155,-0.192 0.293,-0.375 0.407,-0.542 0.228,-0.144 2.664,0.818 2.793,0.5 l 0.84,-2.039 c 0.13,-0.315 -2.276,-1.347 -2.338,-1.608 0.035,-0.184 0.064,-0.391 0.089,-0.614 0.061,-0.215 0.112,-0.416 0.149,-0.6 0.16,-0.216 2.777,-0.258 2.777,-0.6 v -2.205 c -0.002,-0.341 -2.619,-0.38 -2.777,-0.6 z m -11.779,6.55 a 4.854,4.854 0 1 1 4.851,-4.854 4.86,4.86 0 0 1 -4.851,4.854 z m -542.3,-15.584 c -0.042,-0.2 -0.1,-0.426 -0.172,-0.667 -0.024,-0.207 -0.051,-0.4 -0.083,-0.568 0.047,-0.286 2.512,-1.382 2.379,-1.7 l -0.866,-2.083 c -0.134,-0.319 -2.647,0.662 -2.882,0.495 -0.1,-0.145 -0.22,-0.3 -0.353,-0.471 -0.1,-0.184 -0.2,-0.353 -0.3,-0.5 -0.065,-0.28 1.8,-2.232 1.552,-2.477 l -1.594,-1.6 c -0.245,-0.246 -2.2,1.618 -2.477,1.554 -0.146,-0.094 -0.314,-0.194 -0.5,-0.3 -0.2,-0.155 -0.382,-0.295 -0.552,-0.41 -0.146,-0.233 0.836,-2.723 0.514,-2.855 l -2.083,-0.858 c -0.321,-0.131 -1.379,2.325 -1.646,2.387 -0.186,-0.034 -0.4,-0.064 -0.624,-0.09 -0.219,-0.062 -0.424,-0.114 -0.609,-0.152 -0.224,-0.161 -0.266,-2.836 -0.612,-2.836 h -2.253 c -0.348,0 -0.391,2.675 -0.614,2.836 -0.2,0.041 -0.425,0.1 -0.665,0.169 -0.208,0.025 -0.4,0.052 -0.572,0.084 -0.284,-0.047 -1.38,-2.513 -1.7,-2.379 l -2.081,0.866 c -0.321,0.133 0.659,2.649 0.492,2.883 -0.144,0.1 -0.3,0.219 -0.467,0.352 -0.186,0.1 -0.357,0.2 -0.5,0.3 -0.28,0.066 -2.233,-1.8 -2.478,-1.553 l -1.594,1.593 c -0.246,0.246 1.618,2.2 1.552,2.479 -0.094,0.147 -0.194,0.316 -0.3,0.5 -0.154,0.193 -0.293,0.377 -0.408,0.545 -0.232,0.146 -2.722,-0.834 -2.855,-0.512 l -0.858,2.084 c -0.132,0.32 2.326,1.378 2.389,1.646 -0.034,0.186 -0.064,0.4 -0.09,0.62 -0.063,0.22 -0.115,0.425 -0.154,0.611 -0.159,0.225 -2.835,0.267 -2.835,0.613 v 2.254 c 0,0.347 2.674,0.39 2.835,0.613 0.043,0.2 0.1,0.427 0.171,0.666 0.024,0.207 0.052,0.4 0.083,0.57 -0.047,0.284 -2.514,1.381 -2.38,1.7 l 0.866,2.08 c 0.134,0.321 2.651,-0.659 2.887,-0.491 0.1,0.144 0.216,0.3 0.348,0.467 0.1,0.185 0.2,0.354 0.3,0.5 0.066,0.281 -1.8,2.235 -1.553,2.481 l 1.593,1.593 c 0.246,0.245 2.2,-1.618 2.482,-1.552 0.145,0.093 0.312,0.192 0.494,0.294 0.194,0.155 0.38,0.295 0.549,0.41 0.146,0.233 -0.833,2.724 -0.512,2.856 l 2.084,0.858 c 0.321,0.131 1.379,-2.326 1.646,-2.389 0.186,0.035 0.4,0.064 0.62,0.09 0.22,0.063 0.427,0.116 0.612,0.154 0.224,0.159 0.266,2.836 0.613,2.836 h 2.253 c 0.347,0 0.39,-2.677 0.613,-2.836 0.2,-0.041 0.426,-0.1 0.666,-0.17 0.207,-0.024 0.4,-0.053 0.569,-0.083 0.285,0.045 1.381,2.512 1.7,2.379 l 2.081,-0.866 c 0.321,-0.133 -0.659,-2.649 -0.491,-2.884 0.143,-0.1 0.3,-0.219 0.467,-0.351 0.184,-0.1 0.354,-0.2 0.5,-0.3 0.281,-0.066 2.233,1.8 2.478,1.553 l 1.6,-1.593 c 0.246,-0.246 -1.618,-2.2 -1.553,-2.48 0.094,-0.145 0.193,-0.311 0.294,-0.494 0.157,-0.2 0.3,-0.383 0.414,-0.553 0.232,-0.146 2.721,0.836 2.853,0.513 l 0.858,-2.083 c 0.133,-0.322 -2.325,-1.377 -2.387,-1.643 0.035,-0.188 0.063,-0.4 0.089,-0.627 0.063,-0.219 0.116,-0.424 0.155,-0.61 0.16,-0.222 2.833,-0.265 2.833,-0.611 v -2.254 c 0.007,-0.339 -2.666,-0.378 -2.826,-0.603 z m -12.033,6.689 a 4.957,4.957 0 1 1 4.957,-4.957 4.963,4.963 0 0 1 -4.952,4.957 z"
           fill="none"
           stroke="#8aaf02"
           stroke-width="1" />
        <path
           id="Pfad_462"
           data-name="Pfad 462"
           d="m 210.967,411.764 a 30.132,30.132 0 0 0 2.886,0.98 l 0.274,-0.961 a 29.359,29.359 0 0 1 -2.791,-0.949 z M 192.58,383.27 h -1 q 0,1.539 0.155,3.042 l 0.995,-0.1 c -0.097,-0.965 -0.149,-1.947 -0.15,-2.942 z m 12.979,25.7 a 30.375,30.375 0 0 0 2.634,1.534 l 0.46,-0.888 q -1.314,-0.68 -2.548,-1.484 z m -4.749,-3.809 q 1.089,1.066 2.28,2.023 l 0.626,-0.781 a 29.476,29.476 0 0 1 -2.207,-1.956 z m -8.621,-15.828 q 0.306,1.506 0.753,2.954 l 0.955,-0.3 a 29.378,29.378 0 0 1 -0.727,-2.855 z m 4.711,11.157 q 0.861,1.263 1.839,2.43 l 0.767,-0.642 q -0.946,-1.13 -1.78,-2.35 z m 46.979,3.123 0.726,0.688 q 1.047,-1.108 1.982,-2.316 l -0.791,-0.612 a 29.471,29.471 0 0 1 -1.917,2.24 z m -49.893,-8.468 a 30.431,30.431 0 0 0 1.324,2.746 l 0.878,-0.479 q -0.7,-1.29 -1.281,-2.655 z m -2.264,-14.917 1,0.1 q 0.106,-1.11 0.293,-2.193 l -0.985,-0.17 q -0.197,1.115 -0.308,2.263 z m 53.847,15.917 4.466,-0.885 3.738,2.6 -2.073,-10.581 z m 1.915,2.81 0.847,0.53 q 0.809,-1.29 1.488,-2.661 l -0.9,-0.444 q -0.653,1.326 -1.435,2.575 z m -13.173,11.429 0.406,0.914 a 30.346,30.346 0 0 0 2.72,-1.372 l -0.494,-0.869 q -1.278,0.726 -2.632,1.327 z m 5.12,-2.909 0.577,0.816 q 1.247,-0.882 2.4,-1.881 l -0.655,-0.756 q -1.116,0.968 -2.322,1.821 z m -10.713,4.745 0.216,0.976 a 30.4,30.4 0 0 0 2.94,-0.8 l -0.312,-0.951 q -1.394,0.455 -2.844,0.775 z m -5.848,0.692 0.019,1 q 1.539,-0.028 3.04,-0.208 l -0.118,-0.993 q -1.451,0.171 -2.941,0.201 z m -6.048,0.521 q 1.486,0.265 3.022,0.389 l 0.079,-1 q -1.483,-0.117 -2.925,-0.376 z m 409.579,-43.5 q 0.789,1.307 1.7,2.531 l 0.8,-0.6 q -0.877,-1.184 -1.64,-2.451 z m -2.622,-5.493 q 0.525,1.439 1.179,2.809 l 0.9,-0.43 c -0.422,-0.884 -0.8,-1.793 -1.14,-2.72 z m 2.864,-5.855 -2.179,-10.555 -6.042,8.926 4.458,-0.931 z m 3.38,16.237 q 1.02,1.132 2.144,2.164 l 0.677,-0.737 q -1.089,-1 -2.077,-2.1 z m -6.774,-16.428 -0.988,0.154 q 0.238,1.518 0.617,2.982 l 0.968,-0.249 q -0.366,-1.42 -0.597,-2.888 z m 45.265,22.1 0.485,0.875 q 1.336,-0.741 2.59,-1.6 l -0.567,-0.825 q -1.212,0.835 -2.508,1.556 z m 10.161,-46.424 q -0.939,-1.2 -1.987,-2.31 l -0.726,0.687 q 1.016,1.072 1.924,2.237 z m 5.531,22.76 0.995,0.1 q 0.158,-1.5 0.173,-3.04 l -1,-0.009 q -0.014,1.497 -0.168,2.951 z m -9.715,-27.18 q -1.146,-1 -2.389,-1.891 l -0.582,0.812 q 1.2,0.861 2.314,1.832 z m -39.983,49.284 q 1.214,0.916 2.515,1.716 l 0.524,-0.851 c -0.84,-0.516 -1.653,-1.073 -2.437,-1.664 z m 48.523,-16.331 0.956,0.293 q 0.444,-1.446 0.751,-2.951 l -0.98,-0.2 q -0.297,1.455 -0.727,2.86 z m -19.922,20.239 0.309,0.951 q 1.456,-0.473 2.849,-1.077 l -0.4,-0.917 q -1.346,0.587 -2.758,1.045 z m 10.262,-5.686 0.643,0.766 q 1.169,-0.98 2.238,-2.067 l -0.713,-0.7 q -1.034,1.052 -2.168,2.003 z m 4.136,-4.2 0.776,0.631 q 0.96,-1.182 1.806,-2.454 l -0.833,-0.554 q -0.819,1.233 -1.749,2.378 z m 3.262,-4.909 0.881,0.471 q 0.717,-1.341 1.3,-2.753 l -0.924,-0.385 q -0.564,1.369 -1.257,2.668 z m -26.357,16.276 c -0.261,0.006 -0.522,0.01 -0.785,0.01 q -1.092,0 -2.164,-0.075 l -0.069,1 q 1.105,0.078 2.233,0.077 c 0.271,0 0.541,0 0.81,-0.01 l -0.024,-1 z M 681.941,339.2 q -0.693,-1.362 -1.509,-2.644 l -0.844,0.537 q 0.789,1.24 1.462,2.56 z m -42.249,42.916 q 1.365,0.668 2.8,1.2 l 0.352,-0.936 q -1.389,-0.521 -2.71,-1.167 z m 5.7,2.135 q 1.461,0.391 2.977,0.644 l 0.164,-0.986 q -1.465,-0.243 -2.883,-0.625 z m 38.872,-33.319 1,-0.085 q -0.131,-1.53 -0.4,-3.019 l -0.983,0.181 q 0.256,1.443 0.383,2.928 z m -26.91,33.173 0.121,0.993 q 1.524,-0.184 3,-0.51 l -0.214,-0.977 q -1.428,0.32 -2.907,0.499 z m 26.811,-39.242 q -0.42,-1.472 -0.976,-2.886 l -0.93,0.367 q 0.537,1.367 0.944,2.794 z m -97.73,-122.663 1,-0.1 q -0.159,-1.524 -0.441,-3.008 l -0.982,0.186 q 0.268,1.435 0.423,2.922 z m -2.262,-11.764 q -0.654,-1.379 -1.416,-2.692 l -0.864,0.5 q 0.741,1.275 1.376,2.616 z m 2.124,5.692 q -0.413,-1.472 -0.942,-2.891 l -0.936,0.35 q 0.515,1.379 0.915,2.81 z M 564.261,193.14 q 1.383,0.539 2.707,1.189 l 0.44,-0.9 q -1.361,-0.667 -2.784,-1.223 z m 16.828,51.649 0.842,0.54 q 0.819,-1.276 1.532,-2.627 l -0.884,-0.466 q -0.693,1.305 -1.49,2.548 z m -1.817,-42.023 -0.767,0.64 q 0.945,1.136 1.795,2.35 l 0.819,-0.574 q -0.873,-1.253 -1.847,-2.421 z m -21.142,-16.4 -9.411,5.251 10.329,3.079 -2.227,-3.971 z m 19.362,63.116 0.739,0.674 q 1.024,-1.125 1.952,-2.333 l -0.794,-0.609 q -0.901,1.165 -1.897,2.258 z m 8.2,-15.527 0.973,0.23 q 0.348,-1.472 0.572,-2.986 l -0.989,-0.147 q -0.222,1.463 -0.561,2.893 z m 0.93,-8.8 c 0.005,0.235 0.007,0.472 0.007,0.709 q 0,1.133 -0.07,2.247 l 1,0.063 q 0.073,-1.146 0.073,-2.31 c 0,-0.244 0,-0.487 -0.007,-0.729 z m -2.768,14.414 0.92,0.391 q 0.591,-1.4 1.069,-2.848 l -0.951,-0.311 q -0.467,1.399 -1.043,2.759 z m -15.622,17.177 0.476,0.879 q 1.34,-0.726 2.609,-1.56 l -0.548,-0.836 q -1.24,0.801 -2.542,1.508 z m 6.129,-57.543 q 1.122,0.963 2.163,2.017 l 0.711,-0.7 q -1.066,-1.083 -2.223,-2.074 z m -15.761,-7.73 q 1.457,0.3 2.868,0.715 l 0.283,-0.959 q -1.45,-0.428 -2.95,-0.735 z m 4.219,67.639 0.322,0.947 q 1.446,-0.49 2.835,-1.1 l -0.4,-0.916 q -1.354,0.582 -2.762,1.057 z m 6.75,-63.365 q 1.27,0.762 2.468,1.627 l 0.585,-0.811 q -1.23,-0.888 -2.538,-1.674 z m 3.6,57.757 0.617,0.787 q 1.2,-0.94 2.312,-1.975 l -0.681,-0.733 q -1.088,0.997 -2.253,1.912 z m -244.057,-6.543 2.854,0.923 0.308,-0.952 -2.86,-0.932 z m 45.675,14.757 2.855,0.922 0.307,-0.951 -2.855,-0.923 z m -17.128,-5.534 2.855,0.923 0.307,-0.952 -2.855,-0.922 z m 11.419,3.689 2.854,0.923 0.308,-0.952 -2.855,-0.922 z m -43.842,-19.081 -10.758,0.652 7.973,7.252 -0.285,-4.544 z m 55.261,22.771 2.854,0.922 0.308,-0.952 -2.859,-0.933 z m -17.129,-5.534 2.855,0.922 0.307,-0.952 -2.854,-0.922 z m -28.552,-9.229 2.855,0.922 0.307,-0.951 -2.855,-0.923 z m 5.709,1.845 2.855,0.922 0.307,-0.952 -2.854,-0.922 z m 5.71,1.844 2.855,0.922 0.307,-0.951 -2.855,-0.923 z m 5.709,1.845 2.855,0.922 0.307,-0.952 -2.854,-0.922 z m -28.544,-9.227 2.855,0.923 0.308,-0.952 -2.855,-0.922 z m -125.424,76.577 -1.393,-2.659 -0.886,0.465 1.392,2.657 z m 11.139,21.257 -1.392,-2.658 -0.886,0.465 1.392,2.657 z m -13.925,-26.572 -1.392,-2.658 -0.886,0.465 1.393,2.657 z m -10.633,-18.137 1.393,2.657 0.885,-0.463 -1.392,-2.658 z m 18.988,34.08 -1.392,-2.658 -0.886,0.465 1.393,2.657 z m 9.1,9.372 -2.923,3.49 -4.541,0.32 8.247,6.94 z m -6.319,-4.057 -1.393,-2.658 -0.886,0.465 1.392,2.657 z m -15.313,-29.227 -0.886,0.465 1.392,2.657 0.886,-0.463 z m -3.671,-4.849 1.392,2.656 0.886,-0.463 -1.392,-2.658 z m 11.14,21.258 1.392,2.657 0.886,-0.464 -1.392,-2.658 z m 533.353,-32.071 2.967,0.446 0.148,-0.99 -2.967,-0.445 z m -5.934,-0.892 2.967,0.446 0.149,-0.989 -2.967,-0.445 z m -5.933,-0.891 2.967,0.446 0.148,-0.989 -2.967,-0.445 z m 20.915,2.131 -2.966,-0.445 -0.149,0.988 2.966,0.445 z m 1.248,-3.583 0.961,4.45 -2.532,3.783 10.54,-2.255 z m -34.03,-0.331 2.966,0.446 0.149,-0.989 -2.967,-0.445 z m -17.8,-2.674 2.967,0.446 0.148,-0.989 -2.967,-0.445 z m 23.733,3.566 2.967,0.446 0.148,-0.989 -2.966,-0.447 z m -17.8,-2.674 2.967,0.446 0.149,-0.989 -2.967,-0.446 z m 5.934,0.891 2.966,0.446 0.149,-0.989 -2.967,-0.446 z"
           fill="#b3dd03" />
      </g>
      <g
         id="Ebene_7"
         data-name="Ebene 7">
        <path
           id="Pfad_463"
           data-name="Pfad 463"
           d="m 53.293,287.031 a 8.42,8.42 0 1 0 6.813,9.766 8.429,8.429 0 0 0 -6.813,-9.766 z M 50.7,301.58 a 6.358,6.358 0 1 1 7.374,-5.144 6.366,6.366 0 0 1 -7.374,5.144 z m 0.4,-15.781 a 1.03,1.03 0 0 0 1.438,-0.246 l 1.481,-2.091 0.62,2.612 a 1.031,1.031 0 1 0 2.006,-0.477 l -1.147,-4.83 -0.527,-2.219 -1.318,1.862 -2.8,3.952 A 1.031,1.031 0 0 0 51.1,285.8 Z m 1.6,19.073 a 1.03,1.03 0 0 0 -1.437,0.245 l -1.48,2.092 -0.621,-2.612 a 1.031,1.031 0 0 0 -2.006,0.477 l 1.144,4.826 0.528,2.218 1.316,-1.86 2.8,-3.954 A 1.032,1.032 0 0 0 52.7,304.872 Z M 42.211,296.02 a 1.033,1.033 0 0 0 -0.246,-1.438 l -2.092,-1.48 2.611,-0.62 a 1.0313371,1.0313371 0 0 0 -0.476,-2.007 l -4.83,1.147 -2.219,0.527 1.862,1.318 3.953,2.8 a 1.032,1.032 0 0 0 1.437,-0.247 z m 24.631,0.985 -3.953,-2.8 A 1.0311336,1.0311336 0 0 0 61.7,295.89 l 2.092,1.481 -2.611,0.62 A 1.0320801,1.0320801 0 1 0 61.655,300 l 4.829,-1.147 2.22,-0.526 z m -6.312,5.54 a 1.031,1.031 0 1 0 -2.032,0.348 l 0.431,2.526 -2.285,-1.409 a 1.0314565,1.0314565 0 0 0 -1.081,1.757 l 4.226,2.6 1.941,1.2 -0.384,-2.248 z m -0.964,-13.952 2.526,-0.433 -1.408,2.286 a 1.031,1.031 0 1 0 1.755,1.081 l 2.6,-4.226 1.2,-1.941 -2.248,0.385 -4.774,0.816 a 1.031,1.031 0 1 0 0.348,2.032 z m -15.345,13.583 -2.526,0.433 1.41,-2.286 a 1.0314565,1.0314565 0 0 0 -1.757,-1.081 l -2.6,4.228 -1.2,1.94 2.247,-0.385 4.774,-0.815 a 1.032,1.032 0 0 0 -0.348,-2.034 z M 43.2,288.041 a 1.0302991,1.0302991 0 0 0 2.031,-0.348 l -0.431,-2.526 2.285,1.409 a 1.0310307,1.0310307 0 0 0 1.081,-1.756 l -4.227,-2.6 -1.94,-1.2 0.384,2.249 z"
           fill="#ffffff" />
        <path
           id="Pfad_464"
           data-name="Pfad 464"
           d="m 501.14,313.392 -1.237,3.419 8.584,-3.419 -3.565,-8.874 -0.945,3.346 c -10.984,-3.782 -14.621,8.873 -14.621,8.873 8.075,-7.054 11.784,-3.345 11.784,-3.345 z m 8.462,1.439 c 2.853,10.337 -2.1,12.067 -2.1,12.067 l -2.543,-2.6 -0.646,9.216 9.542,0.64 -2.6,-2.3 C 519.426,323.6 509.6,314.831 509.6,314.831 Z M 492.724,325 l 3.586,-0.595 -7.182,-5.813 -5.995,7.451 3.381,-0.813 c 2.076,11.429 14.893,8.409 14.893,8.409 C 491.3,330.047 492.724,325 492.724,325 Z"
           fill="#ffffff" />
        <path
           id="Pfad_465"
           data-name="Pfad 465"
           d="m 460.852,401.883 c -1,0 -1.8,0.355 -1.8,0.793 0,0.438 0.807,0.8 1.8,0.8 0.993,0 1.8,-0.356 1.8,-0.8 0,-0.444 -0.804,-0.793 -1.8,-0.793 z m 5.411,1.521 c -0.637,0 -1.155,0.241 -1.155,0.537 0,0.296 0.518,0.538 1.155,0.538 0.637,0 1.154,-0.242 1.154,-0.538 0,-0.296 -0.517,-0.541 -1.154,-0.541 z m -12.375,-4.038 c 0.788,0 1.426,-0.4 1.426,-0.9 0,-0.5 -0.638,-0.9 -1.426,-0.9 -0.788,0 -1.427,0.4 -1.427,0.9 0,0.5 0.639,0.9 1.427,0.9 z m 18.651,-0.513 a 3.469,3.469 0 0 0 -1.214,0.206 3.284,3.284 0 0 0 -2.009,-0.979 c 0.694,-0.253 1.13,-0.619 1.13,-1.03 0,-0.692 -1.244,-1.265 -2.862,-1.357 -0.007,-0.335 -0.536,-0.606 -1.189,-0.606 -0.653,0 -1.19,0.275 -1.19,0.613 a 0.361,0.361 0 0 0 0.074,0.212 c -0.124,0.035 -0.242,0.072 -0.353,0.113 -0.216,-0.712 -1.318,-1.266 -2.688,-1.339 a 27.365,27.365 0 0 1 -0.094,-5.17 2.1,2.1 0 0 1 1.728,-1.314 h 0.011 0.011 -0.023 a 0.241,0.241 0 0 0 -0.018,-0.481 2.6,2.6 0 0 0 -1.584,0.761 10.656,10.656 0 0 1 0.939,-3.165 0.38527458,0.38527458 0 0 0 -0.689,-0.345 11.519,11.519 0 0 0 -1.019,3.428 13.717,13.717 0 0 0 -2.872,-5.483 0.24041891,0.24041891 0 0 0 -0.358,0.321 14.149,14.149 0 0 1 3.069,6.627 28.577,28.577 0 0 0 0.112,4.835 c -1.442,0.122 -2.546,0.783 -2.546,1.582 a 0.922,0.922 0 0 0 0.012,0.139 3.459,3.459 0 0 0 -0.529,0.082 2.186,2.186 0 0 0 -0.942,-0.2 c -0.787,0 -1.427,0.354 -1.427,0.79 0,0.358 0.432,0.66 1.024,0.756 a 1.04,1.04 0 0 0 0.356,0.589 c -0.037,0 -0.072,0 -0.109,0 -0.968,0 -1.751,0.452 -1.751,1.006 a 0.591,0.591 0 0 0 0.032,0.193 c -1.62,0.09 -2.87,0.65 -2.87,1.331 0,0.575 0.893,1.065 2.147,1.256 a 0.548,0.548 0 0 0 -0.3,0.439 c 0,0.372 0.546,0.674 1.218,0.674 0.672,0 1.218,-0.3 1.218,-0.674 a 0.507,0.507 0 0 0 -0.221,-0.388 3.86,3.86 0 0 0 2.376,-0.853 1.934,1.934 0 0 0 0.735,0.138 1.529,1.529 0 0 0 1.2,-0.472 4.042,4.042 0 0 0 2.646,0.829 c 0.109,0 0.216,0 0.322,-0.009 0.011,0.329 0.422,0.6 0.928,0.6 0.506,0 0.929,-0.274 0.929,-0.609 a 0.494,0.494 0 0 0 -0.2,-0.376 2.744,2.744 0 0 0 0.615,-0.384 5.015,5.015 0 0 0 2.069,0.415 3.925,3.925 0 0 0 2.919,-1.03 3.4,3.4 0 0 0 1.233,0.213 c 1.075,0 1.947,-0.42 1.947,-0.938 0,-0.518 -0.868,-0.946 -1.943,-0.946 z m -13.726,1.39 a 2.232,2.232 0 0 0 -0.224,-0.127 0.837,0.837 0 0 0 0.453,-0.674 0.673,0.673 0 0 0 -0.185,-0.443 q 0.165,0.015 0.336,0.015 c 0.069,0 0.137,0 0.2,-0.006 a 0.541,0.541 0 0 0 -0.075,0.266 0.8,0.8 0 0 0 0.472,0.636 1.652,1.652 0 0 0 -0.977,0.333 z m 6.85,-1.408 a 4.111,4.111 0 0 0 -0.68,-0.233 0.689,0.689 0 0 0 0.395,-0.387 6.519,6.519 0 0 0 1.015,0.171 2.857,2.857 0 0 0 -0.73,0.449 z m 6.187,2.846 c -0.519,0 -0.938,0.234 -0.938,0.522 0,0.288 0.419,0.523 0.938,0.523 0.519,0 0.937,-0.233 0.937,-0.523 0,-0.29 -0.421,-0.522 -0.937,-0.522 z m -20.408,-0.719 c -0.513,0 -0.93,0.216 -0.93,0.48 0,0.264 0.417,0.483 0.93,0.483 0.513,0 0.93,-0.216 0.93,-0.483 0,-0.267 -0.417,-0.48 -0.93,-0.48 z m 23.917,-2.372 c -0.548,0 -0.993,0.242 -0.993,0.545 0,0.303 0.445,0.544 0.993,0.544 0.548,0 0.995,-0.243 0.995,-0.544 0,-0.301 -0.445,-0.545 -0.995,-0.545 z m -7.791,3.783 c -0.512,0 -0.929,0.215 -0.929,0.479 0,0.264 0.417,0.483 0.929,0.483 0.512,0 0.931,-0.216 0.931,-0.483 0,-0.267 -0.416,-0.479 -0.931,-0.479 z m 2.745,-27.672 c -4.609,5.38 -6.042,8.6 -6.429,10.368 1.835,1 13.654,-4.289 12.9,-16.736 -8.754,0.485 -16.82,8.69 -14.188,15.817 1.839,-3.633 7.033,-9.196 7.717,-9.45 z m -5.728,13.582 c 0.151,0.961 5.452,3.816 9.825,0.008 -2.663,-3.087 -7.973,-3.732 -9.851,-0.741 a 17.784,17.784 0 0 1 5.668,0.163 c -3.289,-0.173 -4.883,0.214 -5.642,0.57 z m -7.131,-5.34 c -0.641,-0.99 -2.255,-2.632 -6.3,-4.867 a 25.038,25.038 0 0 1 6.877,4.013 c -0.019,-4.96 -6.829,-8.132 -12.292,-6.425 2.386,7.781 10.821,8.311 11.715,7.279 z"
           fill="#8aaf02" />
        <path
           id="Pfad_466"
           data-name="Pfad 466"
           d="m 648.2,361.649 a 8.062,8.062 0 0 0 10.559,0 c 2.318,1.882 6.825,3.567 11.292,-0.632 l -1.432,-1.524 a 6.193,6.193 0 0 1 -9.084,0.04 1.042,1.042 0 0 0 -0.756,-0.324 1.054,1.054 0 0 0 -0.718,0.284 6.193,6.193 0 0 1 -9.084,0.04 1.041,1.041 0 0 0 -0.755,-0.324 1.053,1.053 0 0 0 -0.72,0.284 6.193,6.193 0 0 1 -9.084,0.04 l -1.512,1.443 a 8.159,8.159 0 0 0 11.294,0.673 z m -4.35,-9.242 a 9.655,9.655 0 0 0 1.427,3.577 l -2.133,2.133 a 4.181,4.181 0 0 0 2.115,1.009 7.943,7.943 0 0 0 2.1,-1.456 1.258,1.258 0 0 1 1.771,0.048 5.994,5.994 0 0 0 8.79,-0.048 1.253,1.253 0 0 1 1.767,0.048 7.084,7.084 0 0 0 2.295,1.509 3.979,3.979 0 0 0 -0.457,-3.208 9.668,9.668 0 0 0 1.425,-3.475 h 3.155 a 4.073,4.073 0 0 0 -3.164,-3.782 9.691,9.691 0 0 0 -1.426,-3.447 l 2.24,-2.24 a 4.073,4.073 0 0 0 -4.9,-0.446 9.669,9.669 0 0 0 -3.46,-1.469 v -3.119 a 4.076,4.076 0 0 0 -3.761,3.08 9.676,9.676 0 0 0 -3.489,1.39 l -2.17,-2.169 a 4.077,4.077 0 0 0 -0.524,4.763 9.656,9.656 0 0 0 -1.553,3.573 H 640.9 a 4.083,4.083 0 0 0 2.953,3.729 z m 9.561,-9.36 a 7.628,7.628 0 1 1 -7.629,7.629 7.638,7.638 0 0 1 7.632,-7.629 z m 5.076,20.945 c 0.005,0.006 0.007,0.012 0.012,0.017 a 1.038,1.038 0 0 0 -0.766,-0.337 1.051,1.051 0 0 0 -0.717,0.284 4.765,4.765 0 0 1 -6.993,0.04 1.048,1.048 0 0 0 -1.475,-0.04 4.735,4.735 0 0 1 -7,0.036 1.064,1.064 0 0 1 0.117,0.146 l -1.626,1.3 a 6.739,6.739 0 0 0 9.208,0.662 6.636,6.636 0 0 0 8.469,0 c 1.953,1.511 5.593,2.765 9.2,-0.623 l -1.432,-1.523 a 4.733,4.733 0 0 1 -6.994,0.038 z m -6.181,-12.826 1.48,-0.37 -1.572,3.131 -0.545,-1.238 -0.521,3.311 v 0 l 3.011,-1.954 -1.44,0.138 4.495,-5.141 -2.908,0.727 v 0 l -1.48,0.369 2.55,-5.08 -5.975,6.834 2.908,-0.726 z"
           fill="#ffffff" />
        <path
           id="Pfad_467"
           data-name="Pfad 467"
           d="m 417.791,294.86 h -15.862 a 1.194,1.194 0 0 0 -1.193,1.194 v 1.053 h 18.249 v -1.053 a 1.2,1.2 0 0 0 -1.194,-1.194 z m -9.76,-11.774 -1.224,1.1 v 3.195 l 1.332,1.2 h 3.55 l 1.225,-1.1 v -3.2 l -1.332,-1.2 z m -7.1,0 -1.485,1.1 -0.408,3.195 1.6,1.2 h 4.3 l 1.055,-1.1 v -3.2 l -1.167,-1.2 z m 6.328,9.317 v 1.844 h 5.194 V 292.4 Z m 4.321,-10.13 1.154,-0.97 v -2.818 l -1.255,-1.055 h -3.347 l -1.154,0.97 v 2.818 l 1.255,1.055 z m 7.023,0.035 1.256,-1.255 -0.423,-2.505 -1.152,-1.153 h -3.347 l -1.256,1.255 v 2.505 l 1.154,1.153 z m -17.175,-4.913 -1.153,1.153 -0.422,2.505 1.255,1.255 h 3.77 l 1.153,-1.153 v -2.505 l -1.256,-1.255 z m 20.671,0.325 a 3.125,3.125 0 0 0 -3.119,-3.039 h -18.243 a 3.126,3.126 0 0 0 -3.121,3.039 l -1.68,10.708 -0.008,0.057 v 0.058 a 3.128,3.128 0 0 0 3.124,3.124 h 21.617 a 3.129,3.129 0 0 0 3.125,-3.124 v -0.058 l -0.01,-0.057 z m -1.434,12.472 h -21.613 a 1.65,1.65 0 0 1 -1.648,-1.606 l 1.673,-10.667 0.008,-0.056 V 277.8 a 1.653,1.653 0 0 1 1.652,-1.65 h 18.247 a 1.652,1.652 0 0 1 1.65,1.65 v 0.058 l 0.009,0.056 1.673,10.667 a 1.65,1.65 0 0 1 -1.647,1.611 z m -1.883,-7.106 h -3.891 l -1.166,1.2 v 3.2 l 1.054,1.1 h 4.3 l 1.6,-1.2 -0.408,-3.195 z m 6.7,-13.477 1.647,-0.593 -0.673,1.705 a 0.7025854,0.7025854 0 1 0 1.307,0.516 l 1.247,-3.152 0.57,-1.447 -1.463,0.528 -3.112,1.12 a 0.7031817,0.7031817 0 0 0 0.477,1.323 z m -6.019,-0.864 a 0.7,0.7 0 0 0 0.936,-0.337 l 0.744,-1.582 0.73,1.679 a 0.70361229,0.70361229 0 1 0 1.291,-0.56 l -1.349,-3.107 -0.62,-1.427 -0.662,1.407 -1.408,2.991 a 0.7,0.7 0 0 0 0.345,0.936 z m -5.04,2.45 a 0.70301227,0.70301227 0 1 0 1.323,-0.476 l -0.591,-1.645 1.7,0.673 a 0.70333242,0.70333242 0 1 0 0.515,-1.309 l -3.15,-1.244 -1.448,-0.571 0.528,1.464 z m 6.757,15.3 -0.138,0.105 0.044,0.1 z m 5.648,-11.442 a 5.746,5.746 0 0 0 -11.221,-1.745 h 1.5 a 4.337,4.337 0 1 1 6.493,5.267 l 0.239,1.516 a 5.751,5.751 0 0 0 2.996,-5.034 z m 4.551,-0.666 -2.992,-1.408 a 0.70410866,0.70410866 0 0 0 -0.6,1.274 l 1.584,0.745 -1.681,0.729 a 0.70381141,0.70381141 0 0 0 0.561,1.291 l 3.107,-1.35 1.427,-0.619 z m -3.579,4.477 a 0.70348276,0.70348276 0 0 0 -1.324,0.476 l 0.592,1.646 -1.7,-0.673 a 0.70434793,0.70434793 0 0 0 -0.518,1.31 l 3.152,1.243 1.448,0.572 -0.527,-1.464 z"
           fill="#8aaf02" />
        <path
           id="Pfad_468"
           data-name="Pfad 468"
           d="m 217.647,381.8 h 0.062 l 0.061,-0.005 a 6.121,6.121 0 0 0 5.465,-6.34 5.036,5.036 0 0 0 -1.465,-3.815 5.565,5.565 0 0 0 -3.83,-1.389 5.169,5.169 0 0 0 -3.524,1.293 4.158,4.158 0 0 0 -1.186,3.12 3.239,3.239 0 0 0 3.184,3.526 2.723,2.723 0 0 0 2.971,-2.351 1.1400029,1.1400029 0 0 0 -2.275,-0.151 1.036,1.036 0 0 1 -0.938,0.179 c -0.427,-0.122 -0.647,-0.537 -0.657,-1.23 a 1.9,1.9 0 0 1 0.488,-1.451 2.941,2.941 0 0 1 1.909,-0.651 h 0.093 a 3.381,3.381 0 0 1 2.2,0.771 2.861,2.861 0 0 1 0.745,2.149 3.858,3.858 0 0 1 -3.367,4.061 l -11.224,-0.043 a 1.143,1.143 0 0 0 -0.008,2.285 z m 18.163,-7.624 a 6.275,6.275 0 0 0 -4.23,-1.536 5.183,5.183 0 0 0 -3.585,1.3 4.58,4.58 0 0 0 -1.317,3.516 3.888,3.888 0 0 0 3.62,4.131 3.1,3.1 0 0 0 3.458,-2.4 1.142,1.142 0 1 0 -2.258,-0.342 c -0.044,0.289 -0.521,0.5 -1.043,0.468 -0.345,-0.024 -1.471,-0.229 -1.493,-1.881 a 2.377,2.377 0 0 1 0.615,-1.84 3.022,3.022 0 0 1 1.935,-0.661 h 0.059 0.06 a 4.012,4.012 0 0 1 2.617,0.921 3.4,3.4 0 0 1 0.9,2.556 4.542,4.542 0 0 1 -3.977,4.776 l -23.942,-0.049 a 1.143,1.143 0 0 0 -0.005,2.285 l 24.012,0.048 h 0.061 l 0.061,-0.006 a 6.807,6.807 0 0 0 6.074,-7.054 5.572,5.572 0 0 0 -1.622,-4.236 z m -10.424,12.577 -0.061,-0.005 h -0.06 l -16.627,0.042 a 1.143,1.143 0 1 0 0.006,2.285 l 16.552,-0.043 a 3.85,3.85 0 0 1 3.37,4.062 2.872,2.872 0 0 1 -0.744,2.149 3.393,3.393 0 0 1 -2.209,0.77 h -0.093 a 2.928,2.928 0 0 1 -1.9,-0.651 1.894,1.894 0 0 1 -0.489,-1.451 c 0.012,-0.941 0.431,-1.037 0.569,-1.069 a 1.148,1.148 0 0 1 1.022,0.291 1.14,1.14 0 0 0 2.278,0.064 2.4,2.4 0 0 0 -1.211,-2.129 3.424,3.424 0 0 0 -3.356,-0.168 3.2,3.2 0 0 0 -1.587,2.984 4.166,4.166 0 0 0 1.185,3.116 5.182,5.182 0 0 0 3.525,1.293 5.572,5.572 0 0 0 3.829,-1.39 5.036,5.036 0 0 0 1.466,-3.814 6.122,6.122 0 0 0 -5.465,-6.34 z"
           fill="#ffffff" />
        <path
           id="Pfad_469"
           data-name="Pfad 469"
           d="m 283.583,348.594 h 10.924 v -1.726 h -10.924 z m 0,2.453 h 10.924 v -1.729 h -10.924 z m 1.947,0.722 c 0,0.021 0,0.042 0,0.061 0,1.338 1.583,2.422 3.537,2.422 1.954,0 3.538,-1.084 3.538,-2.422 0,-0.019 0,-0.04 0,-0.061 z m 15.162,-25.194 a 11.695,11.695 0 0 0 -23.386,0 c -0.021,6.719 6.231,12.408 6.277,16.011 v 0 1.1 h 10.924 v -1.107 0 c 0.046,-3.557 6.175,-9.285 6.185,-16.004 z m -8.155,-9.3 a 8.356,8.356 0 0 1 1.5,0.684 71.8,71.8 0 0 0 -8.635,2.25 32.022,32.022 0 0 1 6.95,-2.9 c 0.063,-0.009 0.125,-0.025 0.185,-0.037 z m -1.673,-0.514 q -2.862,1.1 -5.625,2.412 a 51.483,51.483 0 0 0 -5.338,3.308 9.754,9.754 0 0 1 10.963,-5.723 z m 0.39,24.825 a 0.623,0.623 0 0 1 -0.618,-0.625 c 0,-0.451 0.091,-9.621 3.3,-14.538 -1.5,0.551 -2.772,0.975 -2.792,0.982 a 0.614,0.614 0 0 1 -0.448,-0.022 4.673,4.673 0 0 1 -1.5,-1.162 4.686,4.686 0 0 1 -1.495,1.162 0.617,0.617 0 0 1 -0.449,0.022 c -0.02,-0.007 -1.291,-0.431 -2.792,-0.982 3.207,4.917 3.3,14.087 3.3,14.538 a 0.62100725,0.62100725 0 1 1 -1.242,0.006 v 0 c 0,-0.123 -0.116,-12.262 -4.647,-15.576 a 0.62,0.62 0 0 1 0.6,-1.074 c 1.813,0.759 4.153,1.567 4.917,1.825 a 3.453,3.453 0 0 0 1.247,-1.29 0.612,0.612 0 0 1 0.509,-0.329 c 0.016,0 0.033,0 0.049,0 0.016,0 0.033,0 0.048,0 a 0.618,0.618 0 0 1 0.512,0.329 3.435,3.435 0 0 0 1.247,1.288 c 0.763,-0.258 3.1,-1.066 4.916,-1.825 a 0.621,0.621 0 0 1 0.606,1.074 c -4.532,3.314 -4.648,15.453 -4.648,15.576 v 0 a 0.623,0.623 0 0 1 -0.62,0.618 z m -7.671,4.56 h 10.924 v -1.728 h -10.924 z"
           fill="#ffffff" />
        <path
           id="Pfad_470"
           data-name="Pfad 470"
           d="M 551.855,219.522 H 549.7 v -8.269 a 1.634,1.634 0 0 0 -3.268,0 v 8.269 h -6.709 v -8.269 a 1.6355,1.6355 0 0 0 -3.271,0 v 8.269 h -2.149 v 1.717 h 17.549 z m 2.161,20.68 c -3.1,2.521 -5.689,3.381 -7.474,2.483 -1.68,-0.845 -2.481,-3.187 -2.4,-5.065 v -3.345 h 1.758 a 4.878,4.878 0 0 0 4.876,-4.877 v -7.082 h -15.4 v 7.084 a 4.88,4.88 0 0 0 4.877,4.877 h 1.76 v 3.3 c -0.1,2.434 0.969,5.7 3.571,7.006 1.8,0.908 4.966,1.17 9.764,-2.732 a 1.0614577,1.0614577 0 1 0 -1.337,-1.649 z m 1.407,-1.019 c 2.279,-3.813 8.362,-9.465 9.129,-9.688 -5.436,5.5 -7.243,8.9 -7.8,10.786 1.921,1.233 15.195,-3.61 15.344,-17.217 -9.572,-0.15 -18.989,8.156 -16.673,16.119 z"
           fill="#ffffff" />
        <path
           id="Pfad_471"
           data-name="Pfad 471"
           d="m 162.644,262.085 h -2.166 v -8.326 a 1.646,1.646 0 1 0 -3.292,0 v 8.326 h -6.757 v -8.326 a 1.647,1.647 0 1 0 -3.294,0 v 8.326 h -2.166 v 1.73 h 17.675 z m 2.177,20.83 c -3.125,2.539 -5.728,3.4 -7.528,2.5 -1.691,-0.85 -2.5,-3.211 -2.417,-5.1 v -3.37 h 1.774 a 4.914,4.914 0 0 0 4.912,-4.912 V 264.9 h -15.509 v 7.133 a 4.913,4.913 0 0 0 4.91,4.912 h 1.775 v 3.327 c -0.106,2.451 0.975,5.739 3.595,7.056 1.819,0.914 5,1.178 9.836,-2.752 a 1.07,1.07 0 1 0 -1.348,-1.661 z m 1.417,-1.027 c 2.3,-3.84 8.425,-9.533 9.195,-9.757 -5.474,5.538 -7.295,8.961 -7.859,10.864 1.935,1.242 15.3,-3.637 15.455,-17.342 -9.637,-0.153 -19.122,8.216 -16.791,16.235 z"
           fill="#ffffff" />
        <path
           id="Pfad_472"
           data-name="Pfad 472"
           d="m 784.2,285.753 c -6.632,-11.039 -32.207,3.512 0,23.092 v 0 0 0 c 32.21,-19.58 6.633,-34.131 0,-23.092 z m -10.219,2.87 c 4.519,-0.211 9.085,3.575 8.111,7.37 a 19.806,19.806 0 0 0 -4.455,-4.443 c 2.646,2.518 3.549,4.1 3.843,4.982 -0.891,0.61 -7.232,-1.485 -7.499,-7.909 z m 9.031,12.789 c 0.579,-1.31 2.2,-3.59 6.621,-7.047 a 30.472,30.472 0 0 0 -7.475,6.132 c -0.927,-5.95 6.627,-11.058 13.5,-10.063 -1.365,9.792 -11.378,12.044 -12.646,10.978 z"
           fill="#ffffff" />
        <path
           id="Pfad_473"
           data-name="Pfad 473"
           d="m 654.8,274.159 v 14.815 h 2.791 V 271.09 c -0.409,0.007 -0.772,0.013 -1.078,0.015 -0.432,0.787 -1.032,1.859 -1.713,3.054 z m 3,-7.506 c -1.955,-3.3 -7.13,-11.809 -8.806,-12.4 -1.551,-0.545 2.866,8.18 5.224,12.677 -1.8,3.2 -6.768,12.225 -6.436,14 0.308,1.633 5.77,-6.752 8.454,-11 3.2,-0.023 15.295,-0.188 16.748,-1.433 1.322,-1.128 -10.204,-1.666 -15.184,-1.844 z m -1.677,2.327 a 0.956,0.956 0 1 1 0.953,-0.956 0.956,0.956 0 0 1 -0.95,0.956 z m 2.481,2.625 v 2.013 a 9.639,9.639 0 0 0 3.824,-0.874 c 0.566,-0.481 -1.211,-0.855 -3.821,-1.139 z m -9.486,2.523 1.639,-3.082 c -1.325,-0.064 -2.544,-0.112 -3.513,-0.146 -1.957,-3.3 -7.129,-11.81 -8.806,-12.4 -1.55,-0.546 2.866,8.18 5.225,12.676 -1.8,3.2 -6.769,12.225 -6.436,14.005 0.3,1.633 5.769,-6.752 8.455,-11 0.747,-0.008 1.975,-0.021 3.439,-0.053 z m -4.507,-1.857 a 0.955,0.955 0 1 1 0.955,0.955 0.955,0.955 0 0 1 -0.952,-0.955 z m -0.368,6.134 v 14.816 h 2.793 v -17.885 c -0.41,0.007 -0.772,0.012 -1.079,0.015 -0.43,0.787 -1.03,1.86 -1.711,3.049 z"
           fill="#8aaf02" />
        <path
           id="Pfad_474"
           data-name="Pfad 474"
           d="m 139.026,336.72 a 7.823,7.823 0 0 0 10.246,0 c 2.248,1.827 6.622,3.461 10.955,-0.615 l -1.389,-1.477 a 6.009,6.009 0 0 1 -8.813,0.039 1.017,1.017 0 0 0 -1.43,-0.039 6.01,6.01 0 0 1 -8.814,0.039 1.019,1.019 0 0 0 -1.432,-0.039 6.009,6.009 0 0 1 -8.813,0.039 l -1.468,1.4 a 7.915,7.915 0 0 0 10.958,0.653 z m -4.22,-8.967 a 9.359,9.359 0 0 0 1.385,3.471 l -2.069,2.069 a 4.041,4.041 0 0 0 2.051,0.978 7.641,7.641 0 0 0 2.037,-1.412 1.222,1.222 0 0 1 1.718,0.045 5.813,5.813 0 0 0 8.528,-0.045 1.218,1.218 0 0 1 1.715,0.045 6.864,6.864 0 0 0 2.227,1.466 3.862,3.862 0 0 0 -0.444,-3.112 9.354,9.354 0 0 0 1.382,-3.372 h 3.064 a 3.95,3.95 0 0 0 -3.068,-3.67 9.383,9.383 0 0 0 -1.385,-3.344 l 2.174,-2.173 a 3.951,3.951 0 0 0 -4.751,-0.433 9.407,9.407 0 0 0 -3.358,-1.426 v -3.026 a 3.954,3.954 0 0 0 -3.649,2.988 9.382,9.382 0 0 0 -3.385,1.349 l -2.105,-2.105 a 3.957,3.957 0 0 0 -0.509,4.623 9.389,9.389 0 0 0 -1.507,3.466 h -2.916 a 3.961,3.961 0 0 0 2.865,3.618 z m 9.277,-9.082 a 7.4,7.4 0 1 1 -7.4,7.4 7.409,7.409 0 0 1 7.4,-7.4 z m 4.924,20.322 a 0.134,0.134 0 0 1 0.012,0.017 1.009,1.009 0 0 0 -0.742,-0.327 1.025,1.025 0 0 0 -0.7,0.275 4.622,4.622 0 0 1 -6.785,0.038 1.019,1.019 0 0 0 -1.431,-0.038 4.593,4.593 0 0 1 -6.79,0.035 1.02,1.02 0 0 1 0.113,0.142 l -1.574,1.265 a 6.54,6.54 0 0 0 8.934,0.642 6.442,6.442 0 0 0 8.218,0 6.515,6.515 0 0 0 8.924,-0.6 l -1.389,-1.478 a 4.593,4.593 0 0 1 -6.79,0.029 z m -6,-12.444 1.436,-0.36 -1.525,3.038 -0.529,-1.2 -0.508,3.209 v 0 l 2.922,-1.895 -1.4,0.133 4.361,-4.989 -2.821,0.705 v 0 l -1.436,0.358 2.475,-4.929 -5.8,6.633 2.821,-0.7 z"
           fill="#8aaf02" />
      </g>
    </g>
  </g>
</svg>
