<?xml version="1.0" encoding="UTF-8" standalone="no"?>
<svg
   xmlns:dc="http://purl.org/dc/elements/1.1/"
   xmlns:cc="http://creativecommons.org/ns#"
   xmlns:rdf="http://www.w3.org/1999/02/22-rdf-syntax-ns#"
   xmlns:svg="http://www.w3.org/2000/svg"
   xmlns="http://www.w3.org/2000/svg"
   xmlns:sodipodi="http://sodipodi.sourceforge.net/DTD/sodipodi-0.dtd"
   xmlns:inkscape="http://www.inkscape.org/namespaces/inkscape"
   id="Ebene_1"
   data-name="Ebene 1"
   viewBox="0 0 637.57 113.78053"
   version="1.1"
   sodipodi:docname="logo-wide.svg"
   width="637.57001"
   height="113.78053"
   inkscape:version="1.0.2 (e86c870879, 2021-01-15)">
  <metadata
     id="metadata151">
    <rdf:RDF>
      <cc:Work
         rdf:about="">
        <dc:format>image/svg+xml</dc:format>
        <dc:type
           rdf:resource="http://purl.org/dc/dcmitype/StillImage" />
        <dc:title></dc:title>
      </cc:Work>
    </rdf:RDF>
  </metadata>
  <sodipodi:namedview
     pagecolor="#ffffff"
     bordercolor="#666666"
     borderopacity="1"
     objecttolerance="10"
     gridtolerance="10"
     guidetolerance="10"
     inkscape:pageopacity="0"
     inkscape:pageshadow="2"
     inkscape:window-width="1464"
     inkscape:window-height="933"
     id="namedview149"
     showgrid="false"
     inkscape:zoom="1.1974123"
     inkscape:cx="325.70837"
     inkscape:cy="50.017061"
     inkscape:window-x="72"
     inkscape:window-y="27"
     inkscape:window-maximized="1"
     inkscape:current-layer="Ebene_1"
     inkscape:document-rotation="0"
     fit-margin-top="2"
     fit-margin-left="2"
     fit-margin-right="2"
     fit-margin-bottom="2"
     lock-margins="true" />
  <defs
     id="defs4">
    <style
       id="style2">.cls-1,.cls-4{fill:#87bd26;}.cls-2{fill:#184d25;}.cls-3{fill:#dde8b4;}.cls-3,.cls-4,.cls-5,.cls-6{fill-rule:evenodd;}.cls-5{fill:#bdd785;}.cls-6,.cls-7{fill:#0e8c38;}</style>
  </defs>
  <g
     id="g1047"
     transform="translate(2,1.98)">
    <path
       class="cls-1"
       d="m 364.38,323.4 a 2.91,2.91 0 0 1 -2.95,2.88 h -20.32 a 9,9 0 0 0 8.48,6.06 11.52,11.52 0 0 0 6.6,-1.94 2.82,2.82 0 0 1 3.89,1.36 3.06,3.06 0 0 1 -1.42,3.88 14.34,14.34 0 0 1 -9.07,2.53 14.78,14.78 0 1 1 0,-29.56 c 7.13,0 14.79,5.19 14.79,14.79 z m -23.27,-2.95 h 17 a 8.61,8.61 0 0 0 -8.54,-6 9,9 0 0 0 -8.46,6 z"
       transform="translate(-104.13,-243.17)"
       id="path6" />
    <path
       class="cls-1"
       d="m 397.49,323.4 v 11.83 a 2.92,2.92 0 1 1 -5.83,0 V 323.4 a 9,9 0 1 0 -17.91,0 v 11.83 a 2.91,2.91 0 1 1 -5.82,0 V 323.4 a 14.78,14.78 0 1 1 29.56,0 z"
       transform="translate(-104.13,-243.17)"
       id="path8" />
    <path
       class="cls-1"
       d="m 430.54,323.4 a 2.91,2.91 0 0 1 -2.94,2.88 h -20.32 a 9,9 0 0 0 8.48,6.06 11.52,11.52 0 0 0 6.6,-1.94 2.81,2.81 0 0 1 3.88,1.36 3.06,3.06 0 0 1 -1.41,3.88 14.36,14.36 0 0 1 -9.07,2.53 14.78,14.78 0 1 1 0,-29.56 c 7.13,0 14.78,5.19 14.78,14.79 z m -23.26,-2.95 h 17 a 8.63,8.63 0 0 0 -8.54,-6 9,9 0 0 0 -8.46,6 z"
       transform="translate(-104.13,-243.17)"
       id="path10" />
    <path
       class="cls-1"
       d="m 451.81,311.56 a 2.94,2.94 0 0 1 -2.94,2.94 8.94,8.94 0 0 0 -8.95,8.95 v 11.84 a 2.92,2.92 0 1 1 -5.83,0 v -11.84 a 14.79,14.79 0 0 1 14.78,-14.78 2.9,2.9 0 0 1 2.94,2.89 z"
       transform="translate(-104.13,-243.17)"
       id="path12" />
    <path
       class="cls-1"
       d="m 481.21,338.17 a 14.79,14.79 0 0 1 -28.09,6.48 2.87,2.87 0 0 1 1.35,-3.88 2.93,2.93 0 0 1 3.89,1.29 9,9 0 0 0 17,-3.71 v -3.24 a 14.74,14.74 0 0 1 -23.73,-11.71 14.78,14.78 0 1 1 29.56,0 z m -5.83,-14.77 a 9,9 0 1 0 -8.95,8.94 9,9 0 0 0 8.95,-8.94 z"
       transform="translate(-104.13,-243.17)"
       id="path14" />
    <path
       class="cls-1"
       d="m 508.43,311.73 v 29 a 12.15,12.15 0 0 1 -23.08,5.3 2.9,2.9 0 0 1 1.35,-3.89 2.86,2.86 0 0 1 3.83,1.35 6.42,6.42 0 0 0 5.71,3.54 6.32,6.32 0 0 0 6.36,-6.3 v -4.25 a 11.68,11.68 0 0 1 -6.06,1.65 11.85,11.85 0 0 1 -11.84,-11.72 v -14.68 a 2.89,2.89 0 0 1 5.77,0 v 14.61 a 6.07,6.07 0 1 0 12.13,0 v -14.61 a 2.92,2.92 0 0 1 5.83,0 z"
       transform="translate(-104.13,-243.17)"
       id="path16" />
    <path
       class="cls-2"
       d="m 536.73,256.29 a 2.28,2.28 0 0 0 -2.44,2.09 v 89.68 a 2.48,2.48 0 0 0 4.89,0 v -89.68 a 2.29,2.29 0 0 0 -2.45,-2.09 z"
       transform="translate(-104.13,-243.17)"
       id="path18" />
    <path
       class="cls-2"
       d="m 144.53,284.51 a 21.47,21.47 0 0 1 -18.73,10.43 c -12.54,0 -21.67,-9.19 -21.67,-21 0,-11.13 9.13,-20.43 21.67,-20.43 8.54,0 15.26,4 18.85,10 l -8.19,4.77 c -1.88,-3.65 -5.59,-6.06 -10.66,-6.06 a 11.46,11.46 0 0 0 -11.89,11.71 11.8,11.8 0 0 0 11.89,12 11.65,11.65 0 0 0 10.55,-6.07 z"
       transform="translate(-104.13,-243.17)"
       id="path20" />
    <path
       class="cls-2"
       d="m 188.6,274.21 a 20.67,20.67 0 1 1 -20.67,-20.73 20.75,20.75 0 0 1 20.67,20.73 z m -32.5,0 a 11.78,11.78 0 1 0 11.83,-11.72 11.78,11.78 0 0 0 -11.83,11.72 z"
       transform="translate(-104.13,-243.17)"
       id="path22" />
    <path
       class="cls-2"
       d="m 234.09,294.23 h -9.72 l -20.25,-24.5 v 24.5 h -9.72 v -40 h 9.72 l 20.25,24.43 v -24.47 h 9.72 z"
       transform="translate(-104.13,-243.17)"
       id="path24" />
    <path
       class="cls-2"
       d="M 273.57,266.85 H 264 c 0,-2 -2.35,-4.72 -6.47,-4.72 -2.89,0 -6.43,1.3 -6.43,3.6 0,1.94 2.66,2.71 8.31,4.18 6.3,1.64 15.19,3.77 15.19,12.6 0,7.65 -6.71,12.43 -16.07,12.43 -12.55,0 -17.79,-8.48 -17.79,-14.73 h 9.6 c 0,0 0.76,6.36 8.72,6.36 4.29,0 5.89,-1.82 5.89,-3.53 0,-2.53 -3.36,-3.42 -7.07,-4.3 -6,-1.41 -16.55,-3.65 -16.55,-12.54 0,-7.3 7.19,-12.72 16.31,-12.72 10.36,0 15.93,7.12 15.93,13.37 z"
       transform="translate(-104.13,-243.17)"
       id="path26" />
    <path
       class="cls-2"
       d="m 320.41,274.21 a 20.67,20.67 0 1 1 -20.67,-20.73 20.75,20.75 0 0 1 20.67,20.73 z m -32.51,0 a 11.78,11.78 0 1 0 11.84,-11.72 11.79,11.79 0 0 0 -11.84,11.72 z"
       transform="translate(-104.13,-243.17)"
       id="path28" />
    <path
       class="cls-2"
       d="m 336.45,285.28 h 21 v 9 h -30.66 v -40 h 9.66 z"
       transform="translate(-104.13,-243.17)"
       id="path30" />
    <path
       class="cls-2"
       d="m 374,294.23 h -9.66 v -40 H 374 Z"
       transform="translate(-104.13,-243.17)"
       id="path32" />
    <path
       class="cls-2"
       d="m 422.1,294.23 h -9.71 l -20.26,-24.5 v 24.5 h -9.72 v -40 h 9.72 l 20.26,24.43 v -24.47 h 9.71 z"
       transform="translate(-104.13,-243.17)"
       id="path34" />
    <path
       class="cls-2"
       d="m 469.65,294.23 h -9.72 l -20.25,-24.5 v 24.5 H 430 v -40 h 9.72 l 20.25,24.43 v -24.47 h 9.72 z"
       transform="translate(-104.13,-243.17)"
       id="path36" />
    <path
       class="cls-2"
       d="m 516.85,274.21 a 20.67,20.67 0 1 1 -20.67,-20.73 20.75,20.75 0 0 1 20.67,20.73 z m -32.51,0 a 11.78,11.78 0 1 0 11.84,-11.72 11.79,11.79 0 0 0 -11.84,11.72 z"
       transform="translate(-104.13,-243.17)"
       id="path38" />
    <polygon
       class="cls-3"
       points="583.11,13.94 583.08,14.04 583.24,14.11 583.23,13.95 "
       id="polygon40" />
    <path
       class="cls-3"
       d="m 686.13,259 -8,9.5 10,0.25 -1.66,-9.65 a 1.72,1.72 0 0 1 -0.34,-0.1 z"
       transform="translate(-104.13,-243.17)"
       id="path42" />
    <path
       class="cls-3"
       d="m 685.13,257.34 -27.63,-1.49 a 1.66,1.66 0 0 1 -0.9,0.66 l 3.95,8.71 1.93,4 14.58,-0.73 8.38,-10.12 a 1.71,1.71 0 0 1 -0.31,-1.03 z"
       transform="translate(-104.13,-243.17)"
       id="path44" />
    <path
       class="cls-3"
       d="m 662.24,283.46 a 1.76,1.76 0 0 1 -0.37,-1.23 l -15.29,-2.77 -6.09,3 10.62,12.76 11.13,-11.75 z"
       transform="translate(-104.13,-243.17)"
       id="path46" />
    <path
       class="cls-3"
       d="m 662.51,281 a 1.71,1.71 0 0 1 0.93,-0.34 l -0.28,-6.72 -15.22,4.93 14.13,2.66 a 1.86,1.86 0 0 1 0.44,-0.53 z"
       transform="translate(-104.13,-243.17)"
       id="path48" />
    <polygon
       class="cls-3"
       points="520.87,46.3 520.37,51.91 524.54,50.55 "
       id="polygon50" />
    <path
       class="cls-3"
       d="m 622,273.54 a 1.72,1.72 0 0 1 -0.57,0.85 l 2.05,4.28 11.74,-4.31 z"
       transform="translate(-104.13,-243.17)"
       id="path52" />
    <path
       class="cls-3"
       d="m 621.84,309.67 a 1.9,1.9 0 0 1 0.55,-0.37 1.59,1.59 0 0 1 0.56,-0.11 v -2.45 l -4,1.38 2.86,1.54 z"
       transform="translate(-104.13,-243.17)"
       id="path54" />
    <path
       class="cls-4"
       d="m 600,277.92 h 0.19 l -0.41,-15.08 -13.9,9.16 12.94,6.81 a 1.7,1.7 0 0 1 1.18,-0.89 z"
       transform="translate(-104.13,-243.17)"
       id="path56" />
    <path
       class="cls-4"
       d="m 598.88,278.68 -13,-6.69 -5.09,4.49 1.21,16.82 a 1.69,1.69 0 0 1 0.73,0.45 l 16.16,-13.21 a 1.71,1.71 0 0 1 -0.24,-0.59 1.79,1.79 0 0 1 0.23,-1.27 z"
       transform="translate(-104.13,-243.17)"
       id="path58" />
    <path
       class="cls-4"
       d="m 596.32,297.61 v -0.07 l -13.21,-2.11 a 1.73,1.73 0 0 1 -1.32,1.21 2.25,2.25 0 0 1 -0.26,0 l -2.76,24.48 19.91,-13.41 -0.93,-8.72 a 1.72,1.72 0 0 1 -1.43,-1.38 z"
       transform="translate(-104.13,-243.17)"
       id="path60" />
    <path
       class="cls-4"
       d="m 596.4,296.77 a 1.7,1.7 0 0 1 1.27,-1.17 l 2.15,-14.33 a 2,2 0 0 1 -0.39,-0.18 l -16.34,13.32 a 1.31,1.31 0 0 1 0.08,0.21 c 0,0 0,0 0,0.05 z"
       transform="translate(-104.13,-243.17)"
       id="path62" />
    <path
       class="cls-4"
       d="m 599.27,298.47 a 1.78,1.78 0 0 1 -0.77,0.47 l 0.9,8.28 0.18,-0.12 7.66,-4.31 z"
       transform="translate(-104.13,-243.17)"
       id="path64" />
    <path
       class="cls-4"
       d="m 633,256.13 a 1.71,1.71 0 0 1 1,-1 l -0.8,-4.78 -11.31,3.33 -12.25,4.42 -9,4.27 L 601,278 a 1.79,1.79 0 0 1 0.86,0.72 l 16.78,-5.53 a 1.71,1.71 0 0 1 2.62,-1.64 l 11.88,-14.08 A 1.74,1.74 0 0 1 633,256.13 Z"
       transform="translate(-104.13,-243.17)"
       id="path66" />
    <path
       class="cls-4"
       d="m 656.63,253.23 a 1.17,1.17 0 0 1 0.27,0.15 l 7.56,-8.35 -16.81,2.23 7.52,6.18 a 1.71,1.71 0 0 1 1.46,-0.21 z"
       transform="translate(-104.13,-243.17)"
       id="path68" />
    <path
       class="cls-4"
       d="m 685.61,256.22 -6.47,-12.45 -13.41,1.09 h -0.08 l -8.17,9 a 1.7,1.7 0 0 1 0.33,1 l 3.6,0.27 23.93,1.42 a 1.31,1.31 0 0 1 0.27,-0.33 z"
       transform="translate(-104.13,-243.17)"
       id="path70" />
    <path
       class="cls-4"
       d="m 708.62,266.69 a 2,2 0 0 1 0.38,-0.33 l -10.5,-22.65 -0.24,-0.52 -18.26,0.54 6.23,12.05 a 1.74,1.74 0 0 1 1.93,0.46 1.71,1.71 0 0 1 0.35,1.57 l 1.16,0.54 18.89,8.47 a 0.75,0.75 0 0 1 0.06,-0.13 z"
       transform="translate(-104.13,-243.17)"
       id="path72" />
    <path
       class="cls-4"
       d="m 711.49,268.6 v 0 a 1.13,1.13 0 0 1 -0.11,0.22 1.7,1.7 0 0 1 -2.17,0.43 l -16.27,13.44 a 1.7,1.7 0 0 1 0,1.54 l 7.75,7 18.64,-21.3 z"
       transform="translate(-104.13,-243.17)"
       id="path74" />
    <path
       class="cls-4"
       d="m 654.25,312.72 a 1.49,1.49 0 0 1 -0.49,0.32 1.69,1.69 0 0 1 -1.6,-0.18 l -18.53,17.47 c 0,0 0,0 0,0.06 a 1.86,1.86 0 0 1 0.08,0.41 l 13.29,2.34 10.4,-5.82 10.85,-7.7 z"
       transform="translate(-104.13,-243.17)"
       id="path76" />
    <path
       class="cls-4"
       d="m 633.68,331.63 a 1.55,1.55 0 0 1 -0.28,0.48 l 2.86,5.86 9.56,-4.26 z"
       transform="translate(-104.13,-243.17)"
       id="path78" />
    <path
       class="cls-4"
       d="m 602.23,333.79 a 1.12,1.12 0 0 1 0.32,0 1.74,1.74 0 0 1 0.46,0.27 l 18.54,-22.39 a 1.21,1.21 0 0 1 -0.1,-0.14 1.77,1.77 0 0 1 -0.13,-0.67 1.68,1.68 0 0 1 0.12,-0.63 l -3.59,-1.66 -17.48,7.69 1.19,11.45 z"
       transform="translate(-104.13,-243.17)"
       id="path80" />
    <path
       class="cls-4"
       d="m 623.45,312.56 v 0 a 1.47,1.47 0 0 1 -0.69,0 v 0 a 1.63,1.63 0 0 1 -0.63,-0.25 l -18.64,22.29 a 1.34,1.34 0 0 1 0.12,0.3 l 26.75,-4 a 1.72,1.72 0 0 1 0.72,-1.28 z"
       transform="translate(-104.13,-243.17)"
       id="path82" />
    <polygon
       class="cls-5"
       points="557.4,24.22 558.22,26.03 558.35,26.01 "
       id="polygon84" />
    <polygon
       class="cls-5"
       points="552.33,11.47 552.19,11.59 552.45,11.56 "
       id="polygon86" />
    <polygon
       class="cls-5"
       points="543.43,57.86 544.22,59.13 543.52,57.84 "
       id="polygon88" />
    <path
       class="cls-5"
       d="m 623.54,287.7 v 0 l -5.33,-6.34 4.55,-2.41 -2,-4.23 c 0,0 -0.07,0 -0.11,0 a 1.71,1.71 0 0 1 -1.81,-0.85 L 602,279.42 a 1.71,1.71 0 0 1 -1.38,1.84 v 0 l -1.34,8.83 -0.67,5.52 a 1.69,1.69 0 0 1 1.14,1.29 1.78,1.78 0 0 1 0,0.73 l 8.36,4.63 15.79,-6.92 0.73,-6.42 z"
       transform="translate(-104.13,-243.17)"
       id="path90" />
    <path
       class="cls-5"
       d="m 654.45,254.34 a 1.41,1.41 0 0 1 0.19,-0.34 l -8,-6.53 -12.7,2.62 c -0.06,0.16 0.49,3 0.85,4.89 a 1.52,1.52 0 0 1 1.56,1.46 l 3.67,-0.31 14.41,-1.31 a 1.58,1.58 0 0 1 0.02,-0.48 z"
       transform="translate(-104.13,-243.17)"
       id="path92" />
    <path
       class="cls-5"
       d="m 661.56,269.31 -5.8,-12.75 h -0.2 a 1.7,1.7 0 0 1 -1,-0.8 l -18.36,1.51 a 1.73,1.73 0 0 1 -2.17,1.08 1.5,1.5 0 0 1 -0.41,-0.23 l -0.41,0.44 -11.48,13.59 a 1.86,1.86 0 0 1 0.24,0.62 c 0,0 0,0 0,0 l 15.19,0.92 12.27,-2.69 v 0 z"
       transform="translate(-104.13,-243.17)"
       id="path94" />
    <path
       class="cls-5"
       d="m 691.48,281.67 a 1.68,1.68 0 0 1 1,0.41 l 16,-13.45 a 1.66,1.66 0 0 1 -0.2,-1.05 l -20.25,-8.94 a 0.1,0.1 0 0 0 0,0.05 1.81,1.81 0 0 1 -0.5,0.29 l 1.72,9.62 7.13,0.89 -6.9,0.35 z"
       transform="translate(-104.13,-243.17)"
       id="path96" />
    <path
       class="cls-5"
       d="m 664.14,280.76 a 2.13,2.13 0 0 1 0.35,0.14 l 10.67,-9.58 -11.16,2.33 v 0.63 z"
       transform="translate(-104.13,-243.17)"
       id="path98" />
    <path
       class="cls-5"
       d="m 678.16,301.61 11.9,-17.09 v 0 a 1.53,1.53 0 0 1 -0.21,-0.4 l -24.55,-1.28 a 1.55,1.55 0 0 1 -0.3,0.62 l 12,18.21 a 1.68,1.68 0 0 1 1.16,-0.06 z"
       transform="translate(-104.13,-243.17)"
       id="path100" />
    <path
       class="cls-5"
       d="m 692.35,284.8 a 1.7,1.7 0 0 1 -1.66,0.16 l -11.78,17.19 a 1.75,1.75 0 0 1 0.29,0.42 1.73,1.73 0 0 1 -0.17,1.58 l 3.8,4 v 0 L 700,291.88 Z"
       transform="translate(-104.13,-243.17)"
       id="path102" />
    <path
       class="cls-5"
       d="m 664.42,283.87 a 1.67,1.67 0 0 1 -1.49,0.08 l -11.22,11.63 3.26,4.11 -7.31,1.31 0.25,0.46 5.07,8.26 a 1.7,1.7 0 0 1 1.65,0.93 l 21.23,-7.46 a 1.76,1.76 0 0 1 0.44,-1.11 z"
       transform="translate(-104.13,-243.17)"
       id="path104" />
    <path
       class="cls-5"
       d="m 678.55,304.64 a 2,2 0 0 1 -0.3,0.2 1.72,1.72 0 0 1 -2.19,-0.83 l -21.24,7.32 a 1.74,1.74 0 0 1 -0.11,0.76 l 1.84,1 12.4,6 13.31,-10.51 z"
       transform="translate(-104.13,-243.17)"
       id="path106" />
    <path
       class="cls-5"
       d="m 624,309.51 4.78,-4.35 -5,1.29 -0.08,1.55 v 1.27 a 1.72,1.72 0 0 1 0.3,0.24 z"
       transform="translate(-104.13,-243.17)"
       id="path108" />
    <path
       class="cls-5"
       d="m 652.24,310 -5.53,-8.78 -10,1.93 -6.21,1.6 -6,5.31 a 1.21,1.21 0 0 1 0.15,0.22 1.7,1.7 0 0 1 -0.47,1.94 l 3.47,7.93 4.12,9.25 a 1.7,1.7 0 0 1 1.31,0.31 l 18.59,-17.31 a 1.59,1.59 0 0 1 -0.18,-0.27 1.71,1.71 0 0 1 0.75,-2.13 z"
       transform="translate(-104.13,-243.17)"
       id="path110" />
    <path
       class="cls-5"
       d="m 665.29,282.12 24.41,1.2 a 1.5,1.5 0 0 1 0,-0.47 1.68,1.68 0 0 1 0.86,-1 L 688.4,269.9 676.7,271 h -0.2 l -11.44,10.5 v 0 a 1.87,1.87 0 0 1 0.23,0.62 z"
       transform="translate(-104.13,-243.17)"
       id="path112" />
    <polygon
       class="cls-6"
       points="469.17,82.26 455.7,85.69 456.14,94.61 "
       id="polygon114" />
    <polygon
       class="cls-6"
       points="477.53,52.27 477.45,52.92 477.53,52.34 "
       id="polygon116" />
    <polygon
       class="cls-6"
       points="477.52,52.15 477.51,52.17 477.52,52.2 "
       id="polygon118" />
    <polygon
       class="cls-6"
       points="627.26,5.73 629.07,8.81 633.57,2.19 624.82,1.39 629,8.9 629.07,8.81 "
       id="polygon120" />
    <path
       class="cls-6"
       d="m 586,345.28 -6.6,-16.85 c 0,0 -4.26,2.67 -5.51,3.69 l -10.33,8.37 z"
       transform="translate(-104.13,-243.17)"
       id="path122" />
    <path
       class="cls-6"
       d="m 720.55,251.72 a 2.31,2.31 0 0 1 -0.2,0.24 1.69,1.69 0 0 1 -1.39,0.33 l -7.76,14.25 a 1.72,1.72 0 0 1 0.5,1.25 l 3.53,0.66 4.63,0.79 10.19,-13.24 z"
       transform="translate(-104.13,-243.17)"
       id="path124" />
    <path
       class="cls-6"
       d="m 717.91,251.69 a 1.71,1.71 0 0 1 0,-2.1 l -7.64,-6 -5.83,-0.31 v 0 l -5.24,-0.08 10.52,22.89 a 1.75,1.75 0 0 1 0.85,0.07 l 7.7,-14.16 a 1.54,1.54 0 0 1 -0.36,-0.31 z"
       transform="translate(-104.13,-243.17)"
       id="path126" />
    <path
       class="cls-6"
       d="m 711.58,243.63 6.91,5.46 a 1.69,1.69 0 0 1 1,-0.2 l 1.19,-4.78 z"
       transform="translate(-104.13,-243.17)"
       id="path128" />
    <path
       class="cls-6"
       d="m 728,244.5 -6.58,-0.35 -1.26,5 a 1.74,1.74 0 0 1 0.42,0.35 1.7,1.7 0 0 1 0.3,1.5 l 9.62,4.32 2.07,-2.62 z"
       transform="translate(-104.13,-243.17)"
       id="path130" />
    <path
       class="cls-6"
       d="m 632.74,332.65 v 0 a 1.52,1.52 0 0 1 -0.69,0.13 l -2.75,7.77 0.3,-0.07 v 0 l 5.94,-2.2 z"
       transform="translate(-104.13,-243.17)"
       id="path132" />
    <path
       class="cls-6"
       d="m 601.54,333.83 -2,-17.05 -16.54,9.34 17.79,8.14 a 1.64,1.64 0 0 1 0.75,-0.43 z"
       transform="translate(-104.13,-243.17)"
       id="path134" />
    <path
       class="cls-6"
       d="m 630.49,331.76 -26.8,3.85 a 1.39,1.39 0 0 1 -0.39,1 l 8.55,8.2 16.51,-4 2.87,-8.23 a 1.7,1.7 0 0 1 -0.74,-0.82 z"
       transform="translate(-104.13,-243.17)"
       id="path136" />
    <path
       class="cls-6"
       d="m 602.75,337 a 1.72,1.72 0 0 1 -1.32,0.09 1.79,1.79 0 0 1 -0.6,-0.35 l -12.7,8.92 0.43,0.05 v 0 l 22.28,-0.86 z"
       transform="translate(-104.13,-243.17)"
       id="path138" />
    <path
       class="cls-6"
       d="m 600.34,335 -18.11,-8.41 -2.18,1.4 6.73,17.48 0.3,0.06 13.3,-9.45 A 1.73,1.73 0 0 1 600.34,335 Z"
       transform="translate(-104.13,-243.17)"
       id="path140" />
    <path
       class="cls-6"
       d="m 576.05,323.22 -11.74,-21.82 -3.76,14.54 -0.75,12.23 v 0 0.06 l 14.73,-3.71 1.5,-1.18 a 0.5,0.5 0 0 1 0.02,-0.12 z"
       transform="translate(-104.13,-243.17)"
       id="path142" />
    <polygon
       class="cls-7"
       points="460.5,57 460.36,57.54 460.56,57.1 "
       id="polygon144" />
    <path
       class="cls-7"
       d="m 577.92,321.75 3.15,-25.13 a 1.73,1.73 0 0 1 0.08,-3.39 v 0 l -0.86,-16.23 -6.48,7.27 -6.26,9.73 -2.86,6.3 12,22.51"
       transform="translate(-104.13,-243.17)"
       id="path146" />
  </g>
</svg>
