<?xml version="1.0" encoding="UTF-8" standalone="no"?>
<svg
   xmlns:dc="http://purl.org/dc/elements/1.1/"
   xmlns:cc="http://creativecommons.org/ns#"
   xmlns:rdf="http://www.w3.org/1999/02/22-rdf-syntax-ns#"
   xmlns:svg="http://www.w3.org/2000/svg"
   xmlns="http://www.w3.org/2000/svg"
   xmlns:sodipodi="http://sodipodi.sourceforge.net/DTD/sodipodi-0.dtd"
   xmlns:inkscape="http://www.inkscape.org/namespaces/inkscape"
   id="Ebene_1"
   data-name="Ebene 1"
   viewBox="0 0 637.57 113.78053"
   version="1.1"
   sodipodi:docname="logo-wide1.svg"
   width="637.57001"
   height="113.78053"
   inkscape:version="1.0.2 (e86c870879, 2021-01-15)">
  <metadata
     id="metadata151">
    <rdf:RDF>
      <cc:Work
         rdf:about="">
        <dc:format>image/svg+xml</dc:format>
        <dc:type
           rdf:resource="http://purl.org/dc/dcmitype/StillImage" />
        <dc:title></dc:title>
      </cc:Work>
    </rdf:RDF>
  </metadata>
  <sodipodi:namedview
     pagecolor="#ffffff"
     bordercolor="#666666"
     borderopacity="1"
     objecttolerance="10"
     gridtolerance="10"
     guidetolerance="10"
     inkscape:pageopacity="0"
     inkscape:pageshadow="2"
     inkscape:window-width="1464"
     inkscape:window-height="933"
     id="namedview149"
     showgrid="false"
     inkscape:zoom="1.1974123"
     inkscape:cx="325.70837"
     inkscape:cy="50.017061"
     inkscape:window-x="72"
     inkscape:window-y="27"
     inkscape:window-maximized="1"
     inkscape:current-layer="Ebene_1"
     inkscape:document-rotation="0"
     fit-margin-top="2"
     fit-margin-left="2"
     fit-margin-right="2"
     fit-margin-bottom="2"
     lock-margins="true" />
  <defs
     id="defs4">
    <style
       id="style2">.cls-1,.cls-4{fill:#87bd26;}.cls-2{fill:#184d25;}.cls-3{fill:#dde8b4;}.cls-3,.cls-4,.cls-5,.cls-6{fill-rule:evenodd;}.cls-5{fill:#bdd785;}.cls-6,.cls-7{fill:#0e8c38;}</style>
  </defs>
<g>
	<g>
		<path style="fill:#000000;" d="M 262.25,82.21 C 262.2332,83.804 260.9366,85.0903 259.3402,85.0903 259.326,85.0903 259.3119,85.0902 259.2979,85.09 L 238.98,85.09 C 240.2331,88.6383 243.5537,91.1382 247.4586,91.15 247.5194,91.1511 247.5893,91.1517 247.6595,91.1517 250.0451,91.1517 252.2616,90.4262 254.1003,89.1838 254.4399,89.0068 254.8908,88.8875 255.3696,88.8875 256.5152,88.8875 257.5015,89.571 257.9428,90.5523 258.0955,90.9142 258.1801,91.3143 258.1801,91.7342 258.1801,92.9088 257.5179,93.929 256.5466,94.4419 254.2478,96.0505 251.4133,97.008 248.3557,97.008 248.0406,97.008 247.7279,96.9978 247.4179,96.9778 239.2986,96.98 232.68,90.3614 232.68,82.2 232.68,74.0386 239.2986,67.42 247.46,67.42 254.59,67.42 262.25,72.61 262.25,82.21 Z M 238.98,79.26 L 255.98,79.26 C 254.8406,75.7486 251.5976,73.2536 247.7731,73.2536 247.656,73.2536 247.5394,73.2559 247.4234,73.2605 243.5556,73.2713 240.2503,75.7429 238.9999,79.1977 Z" />
		<path style="fill:#000000;" d="M 295.36,82.21 L 295.36,94.04 C 295.3632,94.0911 295.365,94.1507 295.365,94.2108 295.365,95.8232 294.0574,97.1308 292.445,97.1308 290.8326,97.1308 289.525,95.8232 289.525,94.2108 289.525,94.1507 289.5268,94.0911 289.5304,94.0319 L 289.53,82.21 C 289.5587,81.9403 289.575,81.6276 289.575,81.3111 289.575,76.3414 285.5447,72.3111 280.575,72.3111 275.6053,72.3111 271.575,76.3414 271.575,81.3111 271.575,81.6276 271.5914,81.9403 271.6232,82.2484 L 271.62,94.04 C 271.62,94.04 271.62,94.04 271.62,94.04 271.62,95.6469 270.3169,96.95 268.71,96.95 267.1031,96.95 265.8,95.6469 265.8,94.04 265.8,94.04 265.8,94.04 265.8,94.04 L 265.8,82.21 C 265.8,74.0486 272.4186,67.43 280.58,67.43 288.7414,67.43 295.36,74.0486 295.36,82.21 Z" />
		<path style="fill:#000000;" d="M 328.41,82.21 C 328.3931,83.804 327.0965,85.0902 325.5002,85.0902 325.4896,85.0902 325.479,85.0901 325.4684,85.09 L 305.15,85.09 C 306.4031,88.6383 309.7237,91.1382 313.6286,91.15 313.6894,91.1511 313.7593,91.1517 313.8295,91.1517 316.2151,91.1517 318.4316,90.4262 320.2703,89.1838 320.6089,89.0071 321.0587,88.8879 321.5363,88.8879 322.68,88.8879 323.6643,89.5715 324.1028,90.5523 324.2566,90.9154 324.3419,91.317 324.3419,91.7384 324.3419,92.9098 323.6834,93.9277 322.7164,94.4419 320.4158,96.0503 317.5794,97.0076 314.52,97.0076 314.2069,97.0076 313.8962,96.9976 313.5881,96.9778 305.4686,96.98 298.85,90.3614 298.85,82.2 298.85,74.0386 305.4686,67.42 313.63,67.42 320.76,67.42 328.41,72.61 328.41,82.21 Z M 305.15,79.26 L 322.15,79.26 C 321.0035,75.748 317.7567,73.2541 313.9286,73.2541 313.8166,73.2541 313.7051,73.2563 313.5941,73.2605 309.7256,73.2713 306.4203,75.7429 305.1699,79.1977 Z" />
		<path style="fill:#000000;" d="M 349.68,70.37 C 349.68,71.9934 348.3634,73.31 346.74,73.31 346.737,73.31 346.7335,73.31 346.73,73.31 341.7934,73.31 337.79,77.3134 337.79,82.25 337.79,82.2535 337.79,82.257 337.79,82.2605 L 337.79,94.1 C 337.7932,94.1511 337.795,94.2107 337.795,94.2708 337.795,95.8832 336.4874,97.1908 334.875,97.1908 333.2626,97.1908 331.955,95.8832 331.955,94.2708 331.955,94.2107 331.9568,94.1511 331.9604,94.0919 L 331.96,82.26 C 331.9657,74.1009 338.5809,67.4857 346.7395,67.48 346.7519,67.4798 346.766,67.4797 346.78,67.4797 348.378,67.4797 349.6745,68.7728 349.68,70.3695 Z" />
		<path style="fill:#000000;" d="M 379.08,96.98 C 379.08,96.9831 379.08,96.9868 379.08,96.9905 379.08,105.1574 372.4569,111.7805 364.29,111.7805 358.4769,111.7805 353.446,108.425 351.0289,103.5457 350.7997,103.0865 350.6881,102.6456 350.6881,102.1787 350.6881,101.0361 351.3561,100.0493 352.3228,99.5875 352.7155,99.3925 353.1579,99.2828 353.6258,99.2828 354.7534,99.2828 355.7324,99.9201 356.2223,100.854 357.7553,103.7981 360.7679,105.7639 364.2387,105.7639 369.0691,105.7639 373.0121,101.9564 373.2293,97.1795 L 373.23,93.92 C 370.7694,95.8279 367.6388,96.9789 364.24,96.9789 356.1007,96.9789 349.5,90.3782 349.5,82.2389 349.5,82.2288 349.5,82.2186 349.5,82.2084 349.5,74.0486 356.1186,67.43 364.28,67.43 372.4414,67.43 379.06,74.0486 379.06,82.21 L 379.08,96.98 Z M 373.25,82.21 C 373.2501,82.1922 373.2502,82.1712 373.2502,82.1501 373.2502,77.1804 369.2199,73.1501 364.2502,73.1501 359.2805,73.1501 355.2502,77.1804 355.2502,82.1501 355.2502,87.1199 359.2805,91.1501 364.2502,91.1501 364.2677,91.1501 364.2852,91.1501 364.3027,91.15 369.2273,91.1219 373.2162,87.1364 373.25,82.2132 Z" />
		<path style="fill:#000000;" d="M 406.3,70.54 L 406.3,99.54 C 406.2964,106.2464 400.8569,111.6836 394.15,111.6836 389.3713,111.6836 385.236,108.9233 383.252,104.9105 383.0336,104.4676 382.9245,104.0288 382.9245,103.5646 382.9245,102.4193 383.5888,101.4289 384.553,100.9576 384.934,100.77 385.3625,100.6646 385.8154,100.6646 386.9498,100.6646 387.9302,101.3254 388.3925,102.283 389.4752,104.4076 391.6257,105.8289 394.1085,105.84 394.1219,105.8401 394.136,105.8401 394.15,105.8401 397.6329,105.8401 400.4587,103.0213 400.47,99.5411 L 400.47,95.29 C 398.7598,96.3266 396.6937,96.9402 394.4845,96.9402 394.4583,96.9402 394.4321,96.9402 394.406,96.94 387.9162,96.9347 382.6434,91.7041 382.5701,85.2269 L 382.57,70.54 C 382.6624,69.019 383.9189,67.8199 385.455,67.8199 386.9911,67.8199 388.2476,69.019 388.3396,70.5319 L 388.34,85.15 C 388.3368,85.2235 388.335,85.3097 388.335,85.3963 388.335,88.7481 391.0532,91.4663 394.405,91.4663 397.7568,91.4663 400.475,88.7481 400.475,85.3963 400.475,85.3097 400.4732,85.2235 400.4696,85.1378 L 400.47,70.54 C 400.5629,69.0028 401.8327,67.7908 403.385,67.7908 404.9373,67.7908 406.2071,69.0028 406.2996,70.5319 Z" />
		<path style="fill:#184d25;" d="M 434.6,15.1 C 434.5499,15.0961 434.4915,15.0938 434.4326,15.0938 433.2383,15.0938 432.2581,16.0126 432.1606,17.1817 L 432.16,106.87 C 432.3658,108.0494 433.3822,108.9348 434.605,108.9348 435.8278,108.9348 436.8442,108.0494 437.0478,106.8848 L 437.05,17.19 C 436.9469,16.0116 435.9645,15.0938 434.7682,15.0938 434.709,15.0938 434.6504,15.0961 434.5923,15.1005 Z" />
		<path style="fill:#184d25;" d="M 42.4,43.32 C 38.5798,49.6117 31.7648,53.7523 23.9845,53.7523 23.8739,53.7523 23.7636,53.7515 23.6534,53.7498 11.13,53.75 2.0,44.56 2.0,32.75 2.0,21.62 11.13,12.32 23.67,12.32 32.21,12.32 38.93,16.32 42.52,22.32 L 34.33,27.09 C 32.45,23.44 28.74,21.03 23.67,21.03 23.5408,21.0248 23.3893,21.0218 23.2371,21.0218 16.909,21.0218 11.7771,26.1537 11.7771,32.4818 11.7771,32.5726 11.7781,32.6631 11.7802,32.7534 11.7789,32.7996 11.7783,32.8699 11.7783,32.9404 11.7783,39.4562 17.0624,44.7404 23.5783,44.7404 23.6105,44.7404 23.6427,44.7402 23.6749,44.74 23.7656,44.7428 23.878,44.7444 23.9909,44.7444 28.3801,44.7444 32.2032,42.3158 34.1894,38.7293 L 42.4,43.32 Z" />
		<path style="fill:#184d25;" d="M 86.47,33.02 C 86.4359,44.408 77.1928,53.63 65.8001,53.63 54.3863,53.63 45.1301,44.3738 45.1301,32.96 45.1301,21.5462 54.3862,12.29 65.8,12.29 77.2166,12.3354 86.4587,21.5987 86.47,33.0189 Z M 53.97,33.02 C 53.9699,33.0378 53.9698,33.0588 53.9698,33.0799 53.9698,39.5847 59.245,44.8599 65.7498,44.8599 72.2547,44.8599 77.5298,39.5847 77.5298,33.0799 77.5298,26.5927 72.2832,21.3285 65.8027,21.3 65.7851,21.2999 65.7675,21.2999 65.7498,21.2999 59.2661,21.2999 54.004,26.541 53.97,33.0168 Z" />
		<path style="fill:#184d25;" d="M 131.96,53.04 L 122.24,53.04 101.99,28.54 101.99,53.04 92.27,53.04 92.27,13.04 101.99,13.04 122.24,37.47 122.24,13.0 131.96,13.0 131.96,53.04 Z" />
		<path style="fill:#184d25;" d="M 171.44,25.66 L 161.87,25.66 C 161.87,23.66 159.52,20.94 155.4,20.94 152.51,20.94 148.97,22.24 148.97,24.54 148.97,26.48 151.63,27.25 157.28,28.72 163.58,30.36 172.47,32.49 172.47,41.32 172.47,48.97 165.76,53.75 156.4,53.75 143.85,53.75 138.61,45.27 138.61,39.02 L 148.21,39.02 C 148.21,39.02 148.97,45.38 156.93,45.38 161.22,45.38 162.82,43.56 162.82,41.85 162.82,39.32 159.46,38.43 155.75,37.55 149.75,36.14 139.2,33.9 139.2,25.01 139.2,17.71 146.39,12.29 155.51,12.29 165.87,12.29 171.44,19.41 171.44,25.66 Z" />
		<path style="fill:#184d25;" d="M 218.28,33.02 C 218.2459,44.408 209.0028,53.63 197.6101,53.63 186.1963,53.63 176.9401,44.3738 176.9401,32.96 176.9401,21.5462 186.1962,12.29 197.61,12.29 209.0266,12.3354 218.2687,21.5987 218.28,33.0189 Z M 185.77,33.02 C 185.7699,33.0378 185.7699,33.0588 185.7699,33.0798 185.7699,39.5847 191.045,44.8598 197.5499,44.8598 204.0547,44.8598 209.3299,39.5847 209.3299,33.0798 209.3299,26.5962 204.0889,21.3342 197.6132,21.3 197.5951,21.2999 197.5774,21.2999 197.5598,21.2999 191.074,21.2999 185.8097,26.5398 185.77,33.0162 Z" />
		<path style="fill:#184d25;" d="M 234.32,44.09 L 255.32,44.09 255.32,53.09 224.66,53.09 224.66,13.09 234.32,13.09 234.32,44.09 Z" />
		<path style="fill:#184d25;" d="M 271.87,53.04 L 262.21,53.04 262.21,13.04 271.87,13.04 271.87,53.04 Z" />
		<path style="fill:#184d25;" d="M 319.97,53.04 L 310.26,53.04 290.0,28.54 290.0,53.04 280.28,53.04 280.28,13.04 290.0,13.04 310.26,37.47 310.26,13.0 319.97,13.0 319.97,53.04 Z" />
		<path style="fill:#184d25;" d="M 367.52,53.04 L 357.8,53.04 337.55,28.54 337.55,53.04 327.87,53.04 327.87,13.04 337.59,13.04 357.84,37.47 357.84,13.0 367.56,13.0 367.52,53.04 Z" />
		<path style="fill:#184d25;" d="M 414.72,33.02 C 414.6859,44.408 405.4428,53.63 394.0501,53.63 382.6363,53.63 373.3801,44.3738 373.3801,32.96 373.3801,21.5462 382.6362,12.29 394.05,12.29 405.4666,12.3354 414.7087,21.5987 414.72,33.0189 Z M 382.21,33.02 C 382.2099,33.0378 382.2099,33.0588 382.2099,33.0798 382.2099,39.5847 387.485,44.8598 393.9899,44.8598 400.4947,44.8598 405.7699,39.5847 405.7699,33.0798 405.7699,26.5962 400.5289,21.3342 394.0533,21.3 394.0351,21.2999 394.0174,21.2999 393.9998,21.2999 387.514,21.2999 382.2497,26.5398 382.21,33.0162 Z" />
		<path style="fill:#dde8b4;" d="M 585.11,15.92 L 585.08,16.02 585.24,16.09 585.23,15.93 585.11,15.92 Z" />
		<path style="fill:#dde8b4;" d="M 584.0,17.81 L 576.0,27.31 586.0,27.56 584.34,17.91 C 584.2111,17.8858 584.0971,17.8512 583.9887,17.8058 Z" />
		<path style="fill:#dde8b4;" d="M 583.0,16.15 L 555.37,14.66 C 555.1561,14.9727 554.8454,15.2056 554.4817,15.3169 L 558.42,24.03 560.35,28.03 574.93,27.3 583.31,17.18 C 583.1157,16.9062 582.9994,16.5653 582.9994,16.1972 582.9994,16.1806 582.9996,16.1641 583.0001,16.1476 Z" />
		<path style="fill:#dde8b4;" d="M 560.11,42.27 C 559.8758,41.9737 559.7342,41.5949 559.7342,41.183 559.7342,41.1327 559.7363,41.0828 559.7404,41.0336 L 544.45,38.27 538.36,41.27 548.98,54.03 560.11,42.28 560.11,42.27 Z" />
		<path style="fill:#dde8b4;" d="M 560.38,39.81 C 560.6372,39.6152 560.9573,39.4906 561.3054,39.4702 L 561.03,32.75 545.81,37.68 559.94,40.34 C 560.0565,40.1327 560.2034,39.9571 560.3771,39.8125 Z" />
		<path style="fill:#dde8b4;" d="M 522.87,48.28 L 522.37,53.89 526.54,52.53 522.87,48.28 Z" />
		<path style="fill:#dde8b4;" d="M 519.87,32.35 C 519.7656,32.6944 519.5665,32.984 519.3032,33.1974 L 521.35,37.48 533.09,33.17 519.87,32.35 Z" />
		<path style="fill:#dde8b4;" d="M 519.71,68.48 C 519.8657,68.3297 520.0477,68.2054 520.2481,68.1149 520.4258,68.043 520.6178,68.0028 520.8189,68.0 L 520.82,65.55 516.82,66.93 519.68,68.47 519.71,68.48 Z" />
		<path style="fill:#87bd26;" d="M 497.87,36.73 L 498.06,36.73 497.65,21.65 483.75,30.81 496.69,37.62 C 496.9275,37.1652 497.3522,36.8357 497.8591,36.7319 Z" />
		<path style="fill:#87bd26;" d="M 496.75,37.49 L 483.75,30.8 478.66,35.29 479.87,52.11 C 480.1583,52.1996 480.4042,52.3551 480.5993,52.5594 L 496.76,39.35 C 496.6493,39.181 496.566,38.9832 496.5219,38.771 496.4996,38.6585 496.4879,38.5419 496.4879,38.4225 496.4879,38.0777 496.5855,37.7556 496.7545,37.4824 Z" />
		<path style="fill:#87bd26;" d="M 494.19,56.42 L 494.19,56.35 480.98,54.24 C 480.7957,54.8549 480.2947,55.3193 479.6711,55.4481 479.6211,55.4524 479.5757,55.4538 479.53,55.4538 479.4843,55.4538 479.4389,55.4524 479.3938,55.4497 L 476.64,79.93 496.55,66.52 495.62,57.8 C 494.897,57.6864 494.3292,57.1355 494.1918,56.4308 Z" />
		<path style="fill:#87bd26;" d="M 494.27,55.58 C 494.4525,54.9901 494.9317,54.5441 495.5288,54.4121 L 497.69,40.08 C 497.5406,40.029 497.4117,39.9682 497.2912,39.895 L 480.96,53.22 C 480.9893,53.2789 481.0165,53.3485 481.0377,53.4208 481.04,53.43 481.04,53.43 481.04,53.48 L 494.27,55.58 Z" />
		<path style="fill:#87bd26;" d="M 497.14,57.28 C 496.9331,57.4945 496.6738,57.6569 496.3826,57.7466 L 497.27,66.03 497.45,65.91 505.11,61.6 497.14,57.28 Z" />
		<path style="fill:#87bd26;" d="M 530.87,14.94 C 531.0474,14.4768 531.4068,14.1173 531.8584,13.944 L 531.07,9.16 519.76,12.49 507.51,16.91 498.51,21.18 498.87,36.81 C 499.232,36.9565 499.5269,37.2063 499.7256,37.5226 L 516.51,32.0 C 516.5026,31.94 516.4983,31.8707 516.4983,31.8003 516.4983,30.8561 517.2641,30.0903 518.2083,30.0903 518.5505,30.0903 518.8693,30.1909 519.1366,30.3641 L 531.01,16.28 C 530.8751,16.0385 530.7956,15.7501 530.7956,15.4433 530.7956,15.2638 530.8228,15.0907 530.8733,14.9277 Z" />
		<path style="fill:#87bd26;" d="M 554.5,12.04 C 554.6031,12.0811 554.6921,12.1315 554.773,12.1922 L 562.33,3.84 545.52,6.07 553.04,12.25 C 553.3069,12.0697 553.6357,11.9621 553.9897,11.9621 554.1718,11.9621 554.3474,11.9906 554.5121,12.0434 Z" />
		<path style="fill:#87bd26;" d="M 583.48,15.03 L 577.01,2.58 563.6,3.67 563.52,3.67 555.35,12.67 C 555.5549,12.9464 555.6785,13.2936 555.68,13.6696 L 559.28,13.94 583.21,15.36 C 583.2842,15.2326 583.374,15.1237 583.4786,15.0313 Z" />
		<path style="fill:#87bd26;" d="M 606.49,25.5 C 606.6016,25.3758 606.7263,25.2669 606.863,25.1746 L 596.37,2.52 596.13,2.0 577.87,2.54 584.1,14.59 C 584.2879,14.5144 584.5056,14.4706 584.7336,14.4706 585.2478,14.4706 585.71,14.6937 586.0285,15.0485 586.2861,15.3473 586.4421,15.7371 586.4421,16.1634 586.4421,16.3259 586.4194,16.4831 586.3771,16.632 L 587.54,17.16 606.43,25.63 C 606.4477,25.5799 606.468,25.537 606.4919,25.4965 Z" />
		<path style="fill:#87bd26;" d="M 609.36,27.41 L 609.36,27.41 C 609.3284,27.4942 609.2914,27.5668 609.2473,27.6343 608.9358,28.0265 608.4544,28.2787 607.9141,28.2787 607.6076,28.2787 607.3201,28.1975 607.0717,28.0556 L 590.81,41.5 C 590.9262,41.7241 590.9944,41.9891 590.9944,42.27 590.9944,42.5509 590.9262,42.8159 590.8055,43.0494 L 598.56,50.04 617.2,28.74 609.36,27.41 Z" />
		<path style="fill:#87bd26;" d="M 552.12,71.53 C 551.9832,71.6643 551.8204,71.7725 551.6399,71.8464 551.4424,71.928 551.2245,71.9734 550.9961,71.9734 550.6346,71.9734 550.2995,71.8598 550.0247,71.6664 L 531.5,89.14 C 531.5,89.14 531.5,89.14 531.5,89.2 531.5392,89.3198 531.5676,89.4592 531.5796,89.6033 L 544.87,91.95 555.27,86.13 566.12,78.43 552.12,71.53 Z" />
		<path style="fill:#87bd26;" d="M 531.55,90.44 C 531.482,90.6246 531.3871,90.7839 531.2682,90.922 L 534.13,96.78 543.69,92.52 531.55,90.44 Z" />
		<path style="fill:#87bd26;" d="M 500.1,92.6 C 500.1481,92.5927 500.2036,92.5885 500.26,92.5885 500.3164,92.5885 500.3719,92.5927 500.4261,92.6008 500.596,92.6707 500.748,92.7616 500.883,92.8725 L 519.42,70.48 C 519.3857,70.4388 519.3527,70.393 519.323,70.3451 519.2378,70.143 519.19,69.9141 519.19,69.6742 519.19,69.6727 519.19,69.6712 519.19,69.6698 519.19,69.6681 519.19,69.6658 519.19,69.6636 519.19,69.439 519.2341,69.2247 519.3141,69.0288 L 515.72,67.38 498.24,75.07 499.43,86.52 500.1,92.6 Z" />
		<path style="fill:#87bd26;" d="M 521.32,71.37 L 521.32,71.37 C 521.2164,71.3961 521.0974,71.4111 520.975,71.4111 520.8526,71.4111 520.7337,71.3961 520.6199,71.3679 L 520.63,71.37 C 520.3917,71.3286 520.1795,71.2409 519.9943,71.1163 L 501.36,93.41 C 501.4082,93.4961 501.4492,93.5958 501.4778,93.7006 L 528.23,89.71 C 528.2689,89.1808 528.542,88.7223 528.9449,88.4336 L 521.32,71.37 Z" />
		<path style="fill:#bdd785;" d="M 559.4,26.2 L 560.22,28.01 560.35,27.99 559.4,26.2 Z" />
		<path style="fill:#bdd785;" d="M 554.33,13.45 L 554.19,13.57 554.45,13.54 554.33,13.45 Z" />
		<path style="fill:#bdd785;" d="M 545.43,59.84 L 546.22,61.11 545.52,59.82 545.43,59.84 Z" />
		<path style="fill:#bdd785;" d="M 521.41,46.51 L 521.41,46.51 516.08,40.17 520.63,37.76 518.63,33.53 C 518.63,33.53 518.56,33.53 518.52,33.53 518.4252,33.5486 518.3162,33.5593 518.2047,33.5593 517.5654,33.5593 517.0079,33.2083 516.7145,32.6885 L 499.87,38.23 C 499.8748,38.2782 499.8776,38.3341 499.8776,38.3907 499.8776,39.2209 499.2856,39.9131 498.5008,40.0682 L 498.49,40.07 497.15,48.9 496.48,54.42 C 497.0634,54.6128 497.4998,55.099 497.6182,55.6993 497.6441,55.8198 497.6578,55.9458 497.6578,56.075 497.6578,56.2042 497.6441,56.3302 497.6179,56.4517 L 505.98,61.07 521.77,54.15 522.5,47.73 521.41,46.51 Z" />
		<path style="fill:#bdd785;" d="M 552.32,13.15 C 552.3712,13.0202 552.4352,12.908 552.5126,12.8066 L 544.51,6.28 531.81,8.9 C 531.75,9.06 532.3,11.9 532.66,13.79 532.6723,13.7896 532.6867,13.7894 532.7012,13.7894 533.5196,13.7894 534.1872,14.4366 534.2199,15.247 L 537.89,14.94 552.3,13.63 C 552.2938,13.5775 552.2903,13.5167 552.2903,13.455 552.2903,13.3471 552.3011,13.2417 552.3217,13.1399 Z" />
		<path style="fill:#bdd785;" d="M 559.43,28.12 L 553.63,15.37 553.43,15.37 C 552.9982,15.239 552.6472,14.953 552.4344,14.5783 L 534.07,16.08 C 533.8285,16.7636 533.1878,17.2448 532.4349,17.2448 532.2438,17.2448 532.0598,17.2138 531.8879,17.1565 531.7432,17.1012 531.6075,17.0235 531.487,16.9276 L 531.08,17.37 519.6,30.96 C 519.7107,31.1382 519.7942,31.3461 519.8381,31.5682 519.84,31.58 519.84,31.58 519.84,31.58 L 535.03,32.5 547.3,29.81 547.3,29.81 559.43,28.12 Z" />
		<path style="fill:#bdd785;" d="M 589.35,40.48 C 589.7356,40.5045 590.0819,40.6556 590.3519,40.8917 L 606.35,27.44 C 606.2141,27.2045 606.1339,26.922 606.1339,26.6209 606.1339,26.5395 606.1397,26.4594 606.1511,26.3811 L 585.9,17.45 C 585.898,17.4575 585.8968,17.4661 585.8968,17.475 585.8968,17.4839 585.898,17.4925 585.9002,17.5007 585.7569,17.6178 585.5915,17.7156 585.4123,17.7857 L 587.12,27.41 594.25,28.3 587.35,28.65 589.35,40.48 Z" />
		<path style="fill:#bdd785;" d="M 562.01,39.57 C 562.1455,39.6112 562.2615,39.6587 562.3718,39.7156 L 573.03,30.13 561.87,32.46 561.87,33.09 562.01,39.57 Z" />
		<path style="fill:#bdd785;" d="M 576.03,60.42 L 587.93,43.33 587.93,43.33 C 587.8451,43.215 587.774,43.0827 587.7234,42.9406 L 563.17,41.65 C 563.1139,41.8882 563.0097,42.0964 562.8676,42.2729 L 574.87,60.48 C 575.0651,60.3942 575.2925,60.3443 575.5314,60.3443 575.7094,60.3443 575.8809,60.372 576.0418,60.4233 Z" />
		<path style="fill:#bdd785;" d="M 590.22,43.61 C 589.9488,43.801 589.6117,43.9154 589.2479,43.9154 588.9989,43.9154 588.7625,43.8618 588.5494,43.7656 L 576.78,60.96 C 576.893,61.081 576.9898,61.2193 577.0654,61.37 577.1441,61.5656 577.1871,61.7806 577.1871,62.0056 577.1871,62.361 577.0799,62.6914 576.896,62.9662 L 580.7,66.96 580.7,66.96 597.87,50.69 590.22,43.61 Z" />
		<path style="fill:#bdd785;" d="M 562.29,42.68 C 562.0528,42.8171 561.7683,42.8981 561.4649,42.8981 561.2245,42.8981 560.996,42.8472 560.7894,42.7558 L 549.58,54.39 552.84,58.5 545.53,59.81 545.78,60.27 550.85,68.53 C 550.8895,68.5267 550.9354,68.5249 550.9818,68.5249 551.6416,68.5249 552.2138,68.901 552.4955,69.4505 L 573.73,62.0 C 573.7438,61.5723 573.9083,61.1854 574.1717,60.8882 L 562.29,42.68 Z" />
		<path style="fill:#bdd785;" d="M 576.42,63.45 C 576.3322,63.5212 576.234,63.5874 576.1302,63.6447 575.9281,63.7303 575.7052,63.7769 575.4715,63.7769 574.7996,63.7769 574.2176,63.3915 573.9345,62.8298 L 552.69,70.14 C 552.6934,70.181 552.6954,70.2287 552.6954,70.2769 552.6954,70.5009 552.653,70.7151 552.5759,70.9118 L 554.42,71.9 566.82,77.9 580.13,67.39 576.42,63.45 Z" />
		<path style="fill:#bdd785;" d="M 521.87,68.32 L 526.65,63.97 521.65,65.26 521.57,66.81 521.57,68.08 C 521.6831,68.152 521.7813,68.2312 521.8699,68.32 Z" />
		<path style="fill:#bdd785;" d="M 550.11,68.81 L 544.58,60.03 534.58,61.96 528.37,63.56 522.37,68.87 C 522.4254,68.9344 522.4752,69.0065 522.5168,69.0836 522.6006,69.281 522.6475,69.503 522.6475,69.736 522.6475,70.253 522.4166,70.7162 522.0523,71.028 L 525.52,78.96 529.64,88.21 C 529.7289,88.1935 529.8311,88.1841 529.9355,88.1841 530.3177,88.1841 530.6704,88.3103 530.9543,88.5232 L 549.54,71.21 C 549.4744,71.131 549.4147,71.0425 549.3642,70.9484 549.2818,70.751 549.2363,70.5315 549.2363,70.3015 549.2363,69.6645 549.5849,69.1087 550.1016,68.8145 Z" />
		<path style="fill:#bdd785;" d="M 563.16,40.93 L 587.57,42.13 C 587.5582,42.0593 587.5515,41.978 587.5515,41.895 587.5515,41.812 587.5582,41.7307 587.5712,41.6514 587.713,41.2182 588.0214,40.8642 588.4204,40.6644 L 586.27,28.71 574.57,29.81 574.37,29.81 562.93,40.31 562.93,40.31 C 563.0371,40.4885 563.1173,40.6967 563.1582,40.9185 Z" />
		<path style="fill-rule:evenodd;fill:#000000;" d="M 471.17,84.24 L 457.7,87.67 458.14,96.59 471.17,84.24 Z" />
		<path style="fill-rule:evenodd;fill:#000000;" d="M 479.53,54.25 L 479.45,54.9 479.53,54.32 479.53,54.25 Z" />
		<path style="fill-rule:evenodd;fill:#000000;" d="M 479.52,54.13 L 479.51,54.15 479.52,54.18 479.52,54.13 Z" />
		<path style="fill-rule:evenodd;fill:#000000;" d="M 629.26,7.71 L 631.07,10.79 635.57,4.17 626.82,3.37 631.0,10.88 631.07,10.79 629.26,7.71 Z" />
		<path style="fill-rule:evenodd;fill:#000000;" d="M 483.87,104.09 L 477.27,87.24 C 477.27,87.24 473.01,89.91 471.76,90.93 L 461.43,99.3 483.87,104.09 Z" />
		<path style="fill-rule:evenodd;fill:#000000;" d="M 618.42,10.53 C 618.3551,10.6189 618.2895,10.6971 618.2191,10.7708 617.9347,10.9973 617.569,11.1348 617.1712,11.1348 617.0504,11.1348 616.9326,11.1221 616.819,11.098 L 609.07,25.35 C 609.3792,25.661 609.5704,26.0896 609.5704,26.5628 609.5704,26.5759 609.5703,26.5889 609.57,26.6019 L 613.1,27.26 617.73,28.05 627.92,14.81 618.42,10.53 Z" />
		<path style="fill-rule:evenodd;fill:#000000;" d="M 615.78,10.5 C 615.5553,10.2133 615.4197,9.8474 615.4197,9.45 615.4197,9.0526 615.5553,8.6867 615.7829,8.3963 L 608.14,2.4 602.31,2.09 602.31,2.09 597.07,2.01 607.59,24.9 C 607.6759,24.8851 607.7748,24.8765 607.8757,24.8765 608.0777,24.8765 608.2717,24.9108 608.4522,24.9737 L 616.14,10.81 C 616.0015,10.723 615.8829,10.6203 615.7818,10.5021 Z" />
		<path style="fill-rule:evenodd;fill:#000000;" d="M 609.45,2.44 L 616.36,7.9 C 616.5954,7.7678 616.8766,7.69 617.176,7.69 617.2408,7.69 617.3048,7.6936 617.3677,7.7007 L 618.55,2.92 609.45,2.44 Z" />
		<path style="fill-rule:evenodd;fill:#000000;" d="M 625.87,3.31 L 619.29,2.96 618.03,7.96 C 618.1918,8.0574 618.3302,8.1736 618.4483,8.3081 618.6752,8.5958 618.8113,8.9609 618.8113,9.3577 618.8113,9.5187 618.7889,9.6744 618.7471,9.8219 L 628.37,14.13 630.44,11.51 625.87,3.31 Z" />
		<path style="fill-rule:evenodd;fill:#000000;" d="M 530.61,91.46 L 530.61,91.46 C 530.428,91.5432 530.2152,91.5917 529.9912,91.5917 529.9662,91.5917 529.9413,91.5911 529.9165,91.5899 L 527.17,99.36 527.47,99.29 527.47,99.29 533.41,97.09 530.61,91.46 Z" />
		<path style="fill-rule:evenodd;fill:#000000;" d="M 499.41,92.64 L 497.41,75.59 480.87,84.93 498.66,93.07 C 498.8613,92.868 499.1148,92.7182 499.3986,92.6426 Z" />
		<path style="fill-rule:evenodd;fill:#000000;" d="M 528.36,90.57 L 501.56,94.42 C 501.5603,94.4302 501.5604,94.4421 501.5604,94.4541 501.5604,94.8295 501.4115,95.1702 501.1696,95.4203 L 509.72,103.62 526.23,99.62 529.1,91.39 C 528.7697,91.2045 528.5128,90.9218 528.3643,90.5809 Z" />
		<path style="fill-rule:evenodd;fill:#000000;" d="M 500.62,95.81 C 500.3962,95.9241 500.1319,95.991 499.852,95.991 499.6545,95.991 499.4647,95.9577 499.288,95.8963 499.0684,95.8185 498.8688,95.6994 498.6982,95.5483 L 486.0,104.47 486.43,104.52 486.43,104.52 508.71,103.66 500.62,95.81 Z" />
		<path style="fill-rule:evenodd;fill:#000000;" d="M 498.21,93.81 L 480.1,85.4 477.92,86.8 484.65,104.28 484.95,104.34 498.25,94.89 C 498.1818,94.7114 498.1423,94.5049 498.1423,94.2892 498.1423,94.1185 498.1671,93.9536 498.2131,93.7978 Z" />
		<path style="fill-rule:evenodd;fill:#000000;" d="M 473.92,82.03 L 462.18,60.21 458.42,74.75 457.67,86.98 457.67,86.98 457.67,87.04 472.4,83.33 473.9,82.15 C 473.9019,82.1065 473.9091,82.0655 473.9209,82.0265 Z" />
		<path style="fill:#0e8c38;" d="M 462.5,58.98 L 462.36,59.52 462.56,59.08 462.5,58.98 Z" />
		<path style="fill:#0e8c38;" d="M 475.79,80.56 L 478.94,55.43 C 478.1636,55.2488 477.5938,54.5623 477.5938,53.7431 477.5938,52.8952 478.2042,52.1895 479.0094,52.0416 L 479.02,52.04 478.16,35.81 471.68,43.08 465.42,52.81 462.56,59.11 474.56,81.62" />
	</g>
	<g>
		<g>
			<path style="fill:#2d2c2b;" d="M 28.7917,69.4625 L 28.7917,71.9625 31.7448,71.9625 31.7448,73.0875 28.7917,73.0875 28.7917,78.0094 C 28.7917,78.7594 28.8854,79.2398 29.0729,79.4469 29.2683,79.6578 29.6706,79.7594 30.2761,79.7594 L 31.7448,79.7594 31.7448,80.9625 30.2761,80.9625 C 29.1589,80.9625 28.3893,80.7516 27.9636,80.3219 27.5456,79.8961 27.3386,79.1187 27.3386,77.9937 L 27.3386,73.0875 26.2917,73.0875 26.2917,71.9625 27.3386,71.9625 27.3386,69.4625 Z" />
			<path style="fill:#2d2c2b;" d="M 40.8542,76.3844 L 40.8542,77.1187 34.2448,77.1187 C 34.3073,77.9625 34.6042,78.6109 35.1354,79.0562 35.6667,79.5055 36.4089,79.7281 37.3698,79.7281 37.9206,79.7281 38.4518,79.6734 38.9636,79.5562 39.4831,79.4312 39.9987,79.2555 40.5104,79.025 L 40.5104,80.275 C 39.9987,80.4937 39.4714,80.6656 38.9323,80.7906 38.3893,80.9078 37.8386,80.9625 37.2761,80.9625 35.8776,80.9625 34.7761,80.568 33.9636,79.775 33.1511,78.9742 32.7448,77.8961 32.7448,76.5406 32.7448,75.1344 33.1276,74.0211 33.9011,73.1969 34.6706,72.3766 35.7136,71.9625 37.0261,71.9625 38.2018,71.9625 39.1354,72.3609 39.8229,73.15 40.5104,73.943 40.8542,75.0211 40.8542,76.3844 Z M 39.4167,75.9937 C 39.405,75.1422 39.1823,74.4586 38.7448,73.9469 38.3151,73.4391 37.7487,73.1812 37.0417,73.1812 36.237,73.1812 35.5964,73.4273 35.1198,73.9156 34.6393,74.4078 34.362,75.0992 34.2917,75.9937 Z" />
			<path style="fill:#2d2c2b;" d="M 48.9479,72.4312 L 48.9479,73.775 C 48.5417,73.568 48.1198,73.4156 47.6823,73.3219 47.2448,73.2203 46.7917,73.1656 46.3229,73.1656 45.6042,73.1656 45.0651,73.275 44.7136,73.4937 44.3581,73.7047 44.1823,74.0211 44.1823,74.4469 44.1823,74.7711 44.3073,75.025 44.5573,75.2125 44.8151,75.4 45.3308,75.5719 46.1042,75.7281 L 46.5886,75.8375 C 47.6081,76.0562 48.3308,76.3648 48.7604,76.7594 49.1979,77.1461 49.4167,77.6891 49.4167,78.3844 49.4167,79.1773 49.0925,79.8062 48.4479,80.275 47.7995,80.7359 46.9167,80.9625 45.7917,80.9625 45.3229,80.9625 44.8308,80.9156 44.3229,80.8219 43.8229,80.7281 43.2917,80.5953 42.7292,80.4156 L 42.7292,78.9469 C 43.2604,79.2203 43.78,79.4234 44.2917,79.5562 44.8112,79.6812 45.3229,79.7437 45.8229,79.7437 46.4987,79.7437 47.0183,79.6344 47.3854,79.4156 47.7487,79.1891 47.9323,78.8648 47.9323,78.4469 47.9323,78.0641 47.7995,77.7711 47.5417,77.5719 47.28,77.3648 46.7018,77.1734 45.8073,76.9937 L 45.3073,76.8687 C 44.4206,76.693 43.78,76.4156 43.3854,76.0406 42.987,75.6578 42.7917,75.1305 42.7917,74.4625 42.7917,73.6734 43.0808,73.0562 43.6667,72.6187 44.2487,72.1812 45.0768,71.9625 46.1511,71.9625 46.6823,71.9625 47.1823,72.0055 47.6511,72.0875 48.1198,72.1617 48.5495,72.275 48.9479,72.4312 Z" />
			<path style="fill:#2d2c2b;" d="M 52.7917,69.4625 L 52.7917,71.9625 55.7448,71.9625 55.7448,73.0875 52.7917,73.0875 52.7917,78.0094 C 52.7917,78.7594 52.8854,79.2398 53.0729,79.4469 53.2683,79.6578 53.6706,79.7594 54.2761,79.7594 L 55.7448,79.7594 55.7448,80.9625 54.2761,80.9625 C 53.1589,80.9625 52.3893,80.7516 51.9636,80.3219 51.5456,79.8961 51.3386,79.1187 51.3386,77.9937 L 51.3386,73.0875 50.2917,73.0875 50.2917,71.9625 51.3386,71.9625 51.3386,69.4625 Z" />
		</g>
	</g>
</g>
</svg>
